<?xml version="1.0" encoding="utf-8"?>
<!-- Generator: Adobe Illustrator 25.3.1, SVG Export Plug-In . SVG Version: 6.00 Build 0)  -->
<svg version="1.1" id="Layer_1" xmlns="http://www.w3.org/2000/svg" xmlns:xlink="http://www.w3.org/1999/xlink" x="0px" y="0px"
	 viewBox="0 0 100 100" style="enable-background:new 0 0 100 100;" xml:space="preserve">
<g id="TopLeft_x5F_Gap_x5F_Hexagon">
	<path d="M50,100c-2,0-4-0.5-5.8-1.5l-35-19.2C5.4,77.2,3,73.2,3,68.8V32c0-1.1,0.9-2,2-2s2,0.9,2,2v36.7c0,2.9,1.6,5.6,4.1,7
		l35,19.2c2.4,1.3,5.3,1.3,7.7,0l35-19.2c2.6-1.4,4.2-4.1,4.2-7V31.2c0-2.9-1.6-5.6-4.2-7L53.8,5c-2.4-1.3-5.3-1.3-7.7,0L23,17.7
		c-1,0.5-2.2,0.2-2.7-0.8c-0.5-1-0.2-2.2,0.8-2.7L44.2,1.5c3.6-2,7.9-2,11.5,0l35,19.2c3.8,2.1,6.2,6.1,6.2,10.5v37.6
		c0,4.4-2.4,8.4-6.2,10.5l-35,19.2C54,99.5,52,100,50,100z"/>
</g>
<g id="Your_Icon">
	<g id="Hand_1_">
		<path d="M45.5,49.5c-1.5,0-3-0.6-4.2-1.7L41,47.5c-1.1-1.1-1.7-2.6-1.7-4.2c0-1.6,0.6-3.1,1.7-4.2l1.6-1.5c0.8-0.8,2-0.8,2.8,0
			l5.8,5.8c0.4,0.4,0.6,0.9,0.6,1.4s-0.2,1-0.6,1.4l-1.6,1.5C48.5,48.9,47,49.5,45.5,49.5z M44,41.8L43.9,42
			c-0.4,0.4-0.6,0.8-0.6,1.4c0,0.5,0.2,1,0.6,1.4l0.2,0.2c0.7,0.7,2,0.7,2.7,0l0.1-0.1L44,41.8z"/>
		<path d="M52.8,48.1c-1.5,0-3-0.6-4.2-1.7L37.9,35.7c-2.2,1.2-6.3,3.4-9.5,3.4c-4,0-7.8-1.5-10.8-4.1c-0.7-0.6-1.7-1-2.6-1H5
			c-1.1,0-2-0.9-2-2s0.9-2,2-2h10c2,0,3.8,0.7,5.3,2c2.3,2,5.1,3.1,8.2,3.1c2.6,0,7.3-2.6,8.7-3.6c0.8-0.5,1.8-0.4,2.5,0.3
			l11.8,11.8c0.8,0.8,2,0.8,2.8,0l0.2-0.2c0.4-0.4,0.6-0.9,0.6-1.4s-0.2-1-0.6-1.4l-0.2-0.2c-0.8-0.8-0.8-2.1-0.1-2.9l3.5-3.5l0,0
			c0,0,2-2,3.6-3.6c0.4-0.4,0.4-1,0-1.4L50.4,18.2C50.3,18,50.1,18,49.9,18H22c-1.1,0-2-0.9-2-2s0.9-2,2-2h27.9
			c1.2,0,2.4,0.5,3.3,1.4L64,26.2c1.9,1.9,1.9,5.1,0,7c-1.6,1.6-3.6,3.6-3.6,3.6l-2.3,2.3c0.5,0.9,0.7,1.8,0.7,2.8
			c0,1.6-0.6,3.1-1.7,4.2L57,46.4C55.8,47.5,54.3,48.1,52.8,48.1z M49.8,35.2c-0.5,0-1-0.2-1.4-0.6l-5.8-5.8c-0.8-0.8-0.8-2,0-2.8
			l3.5-3.5c0.4-0.4,0.9-0.6,1.4-0.6c0,0,0,0,0,0c0.5,0,1,0.2,1.4,0.6l5.8,5.8c0.8,0.8,0.8,2,0,2.8l-3.5,3.5
			C50.8,35,50.3,35.2,49.8,35.2L49.8,35.2z M46.8,27.4l2.9,2.9l0.6-0.6l-2.9-2.9L46.8,27.4z"/>
		<path d="M39.7,43.7C39.7,43.7,39.7,43.7,39.7,43.7c-1.6,0-3.1-0.6-4.2-1.7l-0.2-0.2c-1.1-1.1-1.7-2.6-1.7-4.2
			c0-1.6,0.6-3.1,1.7-4.2l1.6-1.5c0.8-0.8,2-0.8,2.8,0l5.8,5.8C45.8,38,46,38.5,46,39c0,0.5-0.2,1-0.6,1.4L43.9,42
			C42.8,43.1,41.3,43.7,39.7,43.7z M38.3,36.1l-0.1,0.1c-0.4,0.4-0.6,0.8-0.6,1.4c0,0.5,0.2,1,0.6,1.4l0.2,0.2
			c0.4,0.4,0.8,0.6,1.4,0.6c0,0,0,0,0,0c0.5,0,1-0.2,1.4-0.6l0.1-0.1L38.3,36.1z"/>
		<path d="M55.5,41c-0.5,0-1-0.2-1.4-0.6l-5.8-5.8c-0.8-0.8-0.8-2,0-2.8c0.8-0.8,2-0.8,2.8,0l5.8,5.8c0.8,0.8,0.8,2,0,2.8
			C56.6,40.8,56,41,55.5,41z"/>
		<path d="M44,41c-0.5,0-1-0.2-1.4-0.6c-0.8-0.8-0.8-2,0-2.8c0.8-0.8,2.1-0.8,2.8,0c0.8,0.8,0.8,2,0,2.8l0,0
			C45.1,40.8,44.6,41,44,41z"/>
	</g>
	<g>
		<path d="M50.4,78.7c-1.1,0-2-0.9-2-2v-4.8c0-1.1,0.9-2,2-2s2,0.9,2,2v4.8C52.4,77.8,51.5,78.7,50.4,78.7z"/>
		<path d="M59.4,76c-0.4,0-0.8-0.1-1.1-0.3l-9-6.1c-0.9-0.6-1.1-1.9-0.5-2.8c0.6-0.9,1.9-1.1,2.8-0.5l9,6.1c0.9,0.6,1.1,1.9,0.5,2.8
			C60.6,75.7,60,76,59.4,76z"/>
		<path d="M59.4,68.4c-0.4,0-0.8-0.1-1.2-0.4l-9-6.8c-0.9-0.7-1.1-1.9-0.4-2.8c0.7-0.9,1.9-1.1,2.8-0.4l9,6.8
			c0.9,0.7,1.1,1.9,0.4,2.8C60.6,68.1,60,68.4,59.4,68.4z"/>
		<path d="M57.1,58.4c-0.4,0-0.8-0.1-1.2-0.4l-6.2-4.7c-0.9-0.7-1.1-1.9-0.4-2.8c0.7-0.9,1.9-1.1,2.8-0.4l6.2,4.7
			c0.9,0.7,1.1,1.9,0.4,2.8C58.3,58.1,57.7,58.4,57.1,58.4z"/>
		<path d="M44.6,58.4c-0.6,0-1.2-0.3-1.6-0.8c-0.7-0.9-0.5-2.1,0.4-2.8l6.2-4.7c0.9-0.7,2.1-0.5,2.8,0.4c0.7,0.9,0.5,2.1-0.4,2.8
			L45.8,58C45.4,58.3,45,58.4,44.6,58.4z"/>
		<path d="M41.4,76c-0.6,0-1.3-0.3-1.7-0.9c-0.6-0.9-0.4-2.2,0.5-2.8l9-6.1c0.9-0.6,2.2-0.4,2.8,0.5c0.6,0.9,0.4,2.2-0.5,2.8l-9,6.1
			C42.2,75.9,41.8,76,41.4,76z"/>
		<path d="M41.4,68.4c-0.6,0-1.2-0.3-1.6-0.8c-0.7-0.9-0.5-2.1,0.4-2.8l9-6.8c0.9-0.7,2.1-0.5,2.8,0.4c0.7,0.9,0.5,2.1-0.4,2.8
			l-9,6.8C42.3,68.3,41.9,68.4,41.4,68.4z"/>
	</g>
	<g>
		<path d="M74.3,85.8c-1.1,0-2-0.9-2-2V79c0-1.1,0.9-2,2-2s2,0.9,2,2v4.8C76.3,84.9,75.4,85.8,74.3,85.8z"/>
		<path d="M83.3,83.1c-0.4,0-0.8-0.1-1.1-0.3l-9-6.1c-0.9-0.6-1.1-1.9-0.5-2.8c0.6-0.9,1.9-1.1,2.8-0.5l9,6.1
			c0.9,0.6,1.1,1.9,0.5,2.8C84.5,82.8,83.9,83.1,83.3,83.1z"/>
		<path d="M83.3,75.5c-0.4,0-0.8-0.1-1.2-0.4l-9-6.8c-0.9-0.7-1.1-1.9-0.4-2.8c0.7-0.9,1.9-1.1,2.8-0.4l9,6.8
			c0.9,0.7,1.1,1.9,0.4,2.8C84.5,75.2,83.9,75.5,83.3,75.5z"/>
		<path d="M81,65.5c-0.4,0-0.8-0.1-1.2-0.4l-6.2-4.7c-0.9-0.7-1.1-1.9-0.4-2.8c0.7-0.9,1.9-1.1,2.8-0.4l6.2,4.7
			c0.9,0.7,1.1,1.9,0.4,2.8C82.2,65.2,81.6,65.5,81,65.5z"/>
		<path d="M68.5,65.5c-0.6,0-1.2-0.3-1.6-0.8c-0.7-0.9-0.5-2.1,0.4-2.8l6.2-4.7c0.9-0.7,2.1-0.5,2.8,0.4c0.7,0.9,0.5,2.1-0.4,2.8
			l-6.2,4.7C69.3,65.4,68.9,65.5,68.5,65.5z"/>
		<path d="M65.3,83.1c-0.6,0-1.3-0.3-1.7-0.9c-0.6-0.9-0.4-2.2,0.5-2.8l9-6.1c0.9-0.6,2.2-0.4,2.8,0.5s0.4,2.2-0.5,2.8l-9,6.1
			C66.1,83,65.7,83.1,65.3,83.1z"/>
		<path d="M65.3,75.5c-0.6,0-1.2-0.3-1.6-0.8c-0.7-0.9-0.5-2.1,0.4-2.8l9-6.8c0.9-0.7,2.1-0.5,2.8,0.4c0.7,0.9,0.5,2.1-0.4,2.8
			l-9,6.8C66.2,75.4,65.8,75.5,65.3,75.5z"/>
	</g>
	<g>
		<path d="M26,85.8c-1.1,0-2-0.9-2-2V79c0-1.1,0.9-2,2-2s2,0.9,2,2v4.8C28,84.9,27.1,85.8,26,85.8z"/>
		<path d="M35,83.1c-0.4,0-0.8-0.1-1.1-0.3l-9-6.1c-0.9-0.6-1.1-1.9-0.5-2.8c0.6-0.9,1.9-1.1,2.8-0.5l9,6.1c0.9,0.6,1.1,1.9,0.5,2.8
			C36.2,82.8,35.6,83.1,35,83.1z"/>
		<path d="M35,75.5c-0.4,0-0.8-0.1-1.2-0.4l-9-6.8c-0.9-0.7-1.1-1.9-0.4-2.8c0.7-0.9,1.9-1.1,2.8-0.4l9,6.8c0.9,0.7,1.1,1.9,0.4,2.8
			C36.2,75.2,35.6,75.5,35,75.5z"/>
		<path d="M32.7,65.5c-0.4,0-0.8-0.1-1.2-0.4l-6.2-4.7c-0.9-0.7-1.1-1.9-0.4-2.8c0.7-0.9,1.9-1.1,2.8-0.4l6.2,4.7
			c0.9,0.7,1.1,1.9,0.4,2.8C33.9,65.2,33.3,65.5,32.7,65.5z"/>
		<path d="M20.2,65.5c-0.6,0-1.2-0.3-1.6-0.8c-0.7-0.9-0.5-2.1,0.4-2.8l6.2-4.7c0.9-0.7,2.1-0.5,2.8,0.4c0.7,0.9,0.5,2.1-0.4,2.8
			l-6.2,4.7C21,65.4,20.6,65.5,20.2,65.5z"/>
		<path d="M17,83.1c-0.6,0-1.3-0.3-1.7-0.9c-0.6-0.9-0.4-2.2,0.5-2.8l9-6.1c0.9-0.6,2.2-0.4,2.8,0.5c0.6,0.9,0.4,2.2-0.5,2.8l-9,6.1
			C17.8,83,17.4,83.1,17,83.1z"/>
		<path d="M17,75.5c-0.6,0-1.2-0.3-1.6-0.8c-0.7-0.9-0.5-2.1,0.4-2.8l9-6.8c0.9-0.7,2.1-0.5,2.8,0.4c0.7,0.9,0.5,2.1-0.4,2.8l-9,6.8
			C17.9,75.4,17.5,75.5,17,75.5z"/>
	</g>
	<path d="M53.9,97.3c-1.1,0-2-0.9-2-2c0-4.6,4.2-7.9,4.4-8.1c0.9-0.7,2.1-0.5,2.8,0.4c0.7,0.9,0.5,2.1-0.4,2.8c0,0-2.8,2.2-2.8,4.9
		C55.9,96.4,55,97.3,53.9,97.3z"/>
	<path d="M46.9,97.3c-1.1,0-2-0.9-2-2c0-2.7-2.8-4.9-2.8-4.9c-0.9-0.7-1-1.9-0.4-2.8c0.7-0.9,1.9-1,2.8-0.4c0.2,0.1,4.4,3.4,4.4,8.1
		C48.9,96.4,48,97.3,46.9,97.3z"/>
</g>
</svg>
