<?xml version="1.0" encoding="UTF-8" standalone="no"?>
<svg xmlns="http://www.w3.org/2000/svg" xmlns:xlink="http://www.w3.org/1999/xlink" xmlns:serif="http://www.serif.com/" width="100%" height="100%" viewBox="0 0 100 101" version="1.1" xml:space="preserve" style="fill-rule:evenodd;clip-rule:evenodd;stroke-linejoin:round;stroke-miterlimit:2;">
    <g transform="matrix(1,0,0,1,-12,-362)">
        <g id="MITIGATEDEFORESTATION-Hendi_Perkasa" transform="matrix(0.325733,0,0,0.25974,-133.928,212.653)">
            <rect x="448" y="577" width="307" height="385" style="fill:none;"></rect>
            <clipPath id="_clip1">
                <rect x="448" y="577" width="307" height="385"></rect>
            </clipPath>
            <g clip-path="url(#_clip1)">
                <g transform="matrix(3.07,0,0,3.85,-1415.49,-818.714)">
                    <g id="Modifier_Down">
                        <path d="M675.361,454.165L662.742,461.088C659.153,463.001 654.847,463.001 651.259,461.088C651.252,461.084 651.245,461.08 651.238,461.077L616.238,441.877C616.232,441.873 616.226,441.87 616.22,441.866C612.388,439.711 610,435.634 610,431.323L610,393.723C610,389.292 612.388,385.336 616.22,383.18C616.226,383.177 616.232,383.173 616.238,383.17L651.238,363.97C651.245,363.966 651.252,363.962 651.259,363.958C654.847,362.045 659.153,362.045 662.742,363.958C662.749,363.962 662.755,363.966 662.762,363.97L697.762,383.17C697.769,383.173 697.775,383.177 697.781,383.18C701.613,385.336 704,389.412 704,393.723L704,431.323C704,432.604 703.79,433.863 703.394,435.058C705.652,437.943 707,441.577 707,445.523C707,454.906 699.383,462.523 690,462.523C683.772,462.523 678.321,459.167 675.361,454.165ZM699.988,431.769C697.182,429.727 693.731,428.523 690,428.523C680.617,428.523 673,436.141 673,445.523C673,447.251 673.258,448.92 673.739,450.493L660.851,457.562C658.444,458.843 655.557,458.843 653.149,457.563C653.149,457.563 618.174,438.376 618.174,438.376C615.61,436.931 614,434.209 614,431.323C614,431.323 614,393.723 614,393.723C614,390.757 615.61,388.115 618.174,386.67C618.174,386.67 653.149,367.484 653.149,367.484C655.557,366.203 658.444,366.203 660.851,367.484C660.851,367.484 695.827,386.67 695.827,386.67C698.39,388.115 700,390.837 700,393.723L700,431.323C700,431.472 699.996,431.621 699.988,431.769ZM687.986,448.664L683.452,444.106C682.673,443.324 681.406,443.321 680.623,444.099C679.841,444.878 679.838,446.145 680.616,446.928L688.582,454.934C688.957,455.311 689.467,455.523 689.999,455.523C690.53,455.524 691.04,455.312 691.416,454.936L699.402,446.929C700.182,446.148 700.18,444.881 699.399,444.101C698.617,443.321 697.35,443.323 696.57,444.105L691.986,448.7L691.986,437.517C691.986,436.413 691.09,435.517 689.986,435.517C688.882,435.517 687.986,436.413 687.986,437.517L687.986,448.664ZM682,412.612L682,423.523C682,424.627 682.896,425.523 684,425.523C685.104,425.523 686,424.627 686,423.523L686,412.612L691.772,417.102C692.643,417.78 693.901,417.622 694.579,416.751C695.256,415.88 695.099,414.622 694.228,413.944L685.228,406.944C684.506,406.383 683.494,406.383 682.772,406.944L673.772,413.944C672.901,414.622 672.744,415.88 673.421,416.751C674.099,417.622 675.357,417.78 676.228,417.102L682,412.612ZM664.953,423.523L664.953,420.523C664.953,419.419 664.056,418.523 662.953,418.523C661.849,418.523 660.953,419.419 660.953,420.523L660.953,423.523C660.953,424.627 661.849,425.523 662.953,425.523C664.056,425.523 664.953,424.627 664.953,423.523ZM638.953,423.523L638.953,420.523C638.953,419.419 638.056,418.523 636.953,418.523C635.849,418.523 634.953,419.419 634.953,420.523L634.953,423.523C634.953,424.627 635.849,425.523 636.953,425.523C638.056,425.523 638.953,424.627 638.953,423.523ZM631.971,412.074L633.962,415.523C634.514,416.479 635.738,416.807 636.694,416.255C637.65,415.703 637.978,414.479 637.426,413.523L635.435,410.074L642.679,411.076C643.772,411.227 644.783,410.462 644.934,409.369C645.085,408.276 644.32,407.265 643.227,407.114L631.932,405.552C631.026,405.426 630.15,405.932 629.806,406.78L625.511,417.342C625.096,418.364 625.588,419.532 626.611,419.948C627.633,420.363 628.801,419.871 629.217,418.848L631.971,412.074ZM657.971,412.074L659.962,415.523C660.514,416.479 661.738,416.807 662.694,416.255C663.65,415.703 663.978,414.479 663.426,413.523L661.435,410.074L668.679,411.076C669.772,411.227 670.783,410.462 670.934,409.369C671.085,408.276 670.32,407.265 669.227,407.114L657.932,405.552C657.026,405.426 656.15,405.932 655.806,406.78L651.511,417.342C651.096,418.364 651.588,419.532 652.611,419.948C653.633,420.363 654.801,419.871 655.217,418.848L657.971,412.074ZM663.994,400.24L654.316,399.477C653.49,399.412 652.71,399.862 652.353,400.61L648.175,409.373C647.7,410.369 648.123,411.564 649.119,412.039C650.116,412.514 651.31,412.091 651.785,411.095L655.372,403.573C655.372,403.573 663.679,404.228 663.679,404.228C664.78,404.314 665.744,403.491 665.83,402.391C665.917,401.291 665.094,400.327 663.994,400.24ZM637.994,400.24L628.316,399.477C627.49,399.412 626.71,399.862 626.353,400.61L622.175,409.373C621.7,410.369 622.123,411.564 623.119,412.039C624.116,412.514 625.31,412.091 625.785,411.095L629.372,403.573C629.372,403.573 637.679,404.228 637.679,404.228C638.78,404.314 639.744,403.491 639.83,402.391C639.917,401.291 639.094,400.327 637.994,400.24ZM693.133,405.375L685.133,399.875C684.451,399.406 683.549,399.406 682.867,399.875L674.867,405.375C673.957,406 673.727,407.247 674.352,408.156C674.977,409.066 676.223,409.297 677.133,408.671L684,403.95C684,403.95 690.867,408.671 690.867,408.671C691.777,409.297 693.023,409.066 693.648,408.156C694.273,407.247 694.043,406 693.133,405.375ZM633.495,394.191L624.837,393.416C623.996,393.341 623.199,393.801 622.844,394.567L619.186,402.452C618.721,403.454 619.157,404.644 620.158,405.108C621.16,405.573 622.35,405.137 622.814,404.136L625.881,397.526C625.881,397.526 633.139,398.175 633.139,398.175C634.238,398.273 635.21,397.461 635.309,396.361C635.407,395.262 634.594,394.289 633.495,394.191ZM659.495,394.191L650.837,393.416C649.996,393.341 649.199,393.801 648.844,394.567L645.186,402.452C644.721,403.454 645.157,404.644 646.158,405.108C647.16,405.573 648.35,405.137 648.814,404.136L651.881,397.526C651.881,397.526 659.139,398.175 659.139,398.175C660.238,398.273 661.21,397.461 661.309,396.361C661.407,395.262 660.594,394.289 659.495,394.191ZM692.261,397.887L685.15,392.887C684.46,392.402 683.54,392.402 682.85,392.887L675.739,397.887C674.836,398.522 674.618,399.771 675.253,400.674C675.888,401.576 677.136,401.794 678.039,401.159L684,396.968C684,396.968 689.961,401.159 689.961,401.159C690.864,401.794 692.112,401.576 692.747,400.674C693.382,399.771 693.164,398.522 692.261,397.887Z"></path>
                    </g>
                </g>
            </g>
        </g>
    </g>
</svg>
