<svg version="1.1" id="Layer_1" xmlns="http://www.w3.org/2000/svg" xmlns:xlink="http://www.w3.org/1999/xlink" x="0px" y="0px"
	 width="100%" viewBox="0 0 224 224" enable-background="new 0 0 224 224" xml:space="preserve">
<path fill="#000000" opacity="1.000000" stroke="none" 
	d="
M106.000000,0.999999 
	C110.689255,1.000000 115.378510,1.000000 120.795105,1.217829 
	C125.079430,3.249606 128.685318,4.974303 132.185272,6.892348 
	C151.317337,17.377150 170.439392,27.880606 189.519928,38.458740 
	C192.164185,39.924698 194.497406,40.667633 197.416275,39.020462 
	C200.882034,37.064648 204.810150,37.218266 208.645050,37.651367 
	C218.334366,38.745651 221.883469,45.079758 217.662354,53.884762 
	C216.724976,55.840076 216.402649,57.519787 217.327469,59.547844 
	C219.583801,64.495712 220.075165,69.801071 220.081192,75.156433 
	C220.110062,100.812355 219.983780,126.469223 220.170639,152.123886 
	C220.268845,165.608124 214.817795,175.358978 202.753159,181.681931 
	C189.480072,188.638229 176.424026,196.009811 163.296646,203.242615 
	C150.182816,210.467926 137.097702,217.745407 124.000000,225.000000 
	C117.312355,225.000000 110.624710,225.000000 103.251541,224.744858 
	C101.582573,223.872879 100.628319,223.202637 99.611412,222.647034 
	C74.197006,208.761597 48.786671,194.868607 23.351036,181.022125 
	C12.742202,175.246964 7.400472,166.634903 7.500690,154.316360 
	C7.720111,127.345314 7.800026,100.367798 7.436820,73.399658 
	C7.261869,60.409515 12.806806,51.664898 24.007339,45.632828 
	C51.404396,30.878084 78.677193,15.892609 106.000000,0.999999 
M43.758514,46.357887 
	C38.495220,49.229355 33.304306,52.244720 27.951035,54.937294 
	C20.614294,58.627502 17.269934,64.432632 17.298326,72.609512 
	C17.392054,99.601082 17.465597,126.594345 17.244295,153.584473 
	C17.173307,162.242233 20.754377,168.188797 28.162880,172.233109 
	C53.163353,185.880890 78.200935,199.462555 103.095680,213.300934 
	C110.245934,217.275604 116.804634,217.141129 123.840637,213.186554 
	C137.925430,205.270187 152.180115,197.656433 166.351044,189.892853 
	C177.745377,183.650406 189.196960,177.506744 200.477814,171.064758 
	C209.178391,166.096237 213.356064,153.228470 208.098831,146.453064 
	C199.022202,134.755325 189.402374,123.500809 181.364059,110.997108 
	C177.203323,104.525024 171.031891,102.803131 163.455444,104.906631 
	C155.775604,107.038849 147.969864,108.788460 139.955307,109.347816 
	C132.034271,109.900673 127.307556,105.575401 123.566635,99.267609 
	C120.024765,93.295464 120.364792,87.615097 123.963554,81.884666 
	C127.985565,75.480286 132.835434,69.687492 138.638260,64.952705 
	C144.240265,60.381763 147.680771,56.136776 144.144714,48.337917 
	C142.310181,44.291840 143.270508,39.358002 147.582275,36.244583 
	C151.827332,33.179348 155.821030,34.802250 159.679001,37.104443 
	C164.107254,39.746933 168.827362,41.399914 175.403015,42.149734 
	C157.518188,32.355423 140.826523,23.368872 124.297623,14.092286 
	C116.941452,9.963749 110.126518,9.763349 102.642815,13.987663 
	C83.353004,24.876152 63.841434,35.371796 43.758514,46.357887 
M209.681488,86.500885 
	C208.994171,79.446892 211.247147,72.082138 207.915283,64.894485 
	C205.542206,65.940407 203.696350,66.669220 201.927078,67.551582 
	C198.363708,69.328697 194.601883,69.889565 190.759308,69.080910 
	C187.357025,68.364906 184.004883,67.022369 184.762283,62.605236 
	C185.496902,58.320976 188.637100,58.520016 192.109329,59.133778 
	C198.068481,60.187130 206.563614,53.976212 207.592117,47.968010 
	C203.666687,46.345551 200.144928,47.547611 197.753937,50.517548 
	C193.169952,56.211433 187.908066,56.423893 181.718155,53.873615 
	C175.133865,51.160851 169.004852,52.363846 163.412903,56.648441 
	C153.744522,64.056412 144.550369,71.984665 136.616684,81.275299 
	C135.580582,82.488609 134.143997,83.597588 134.562775,85.809349 
	C138.432999,88.213760 142.035965,91.033020 142.980881,96.124260 
	C143.399506,98.379784 145.176773,98.705772 147.273621,98.233635 
	C152.300537,97.101730 157.406830,96.287781 162.384018,94.976883 
	C173.215439,92.124069 181.597076,95.708191 188.333282,104.222733 
	C191.233597,107.888702 193.719864,111.813301 196.225266,115.749611 
	C199.710052,121.224632 204.187790,125.865463 208.492340,130.629745 
	C208.888672,130.387009 209.284988,130.144272 209.681320,129.901535 
	C209.681320,115.767876 209.681320,101.634209 209.681488,86.500885 
z"/>
<path fill="#000000" opacity="1.000000" stroke="none" 
	d="
M36.335960,132.367355 
	C32.375340,132.326141 29.803226,130.787186 30.016998,127.113152 
	C30.237263,123.327499 33.236233,122.580872 36.564671,122.607399 
	C43.556507,122.663124 50.549343,122.593697 57.541767,122.575874 
	C60.129856,122.569283 61.690945,121.445885 61.597103,118.689095 
	C61.510815,116.154106 62.370857,113.376015 58.520161,112.361122 
	C40.420876,107.590866 30.938986,96.414894 28.678589,77.529060 
	C27.154295,64.793449 29.136900,63.027874 41.692852,65.614929 
	C49.350689,67.192772 55.850410,70.996849 61.526711,75.844070 
	C63.567532,74.947639 63.788074,73.315842 64.292885,71.979355 
	C71.205124,53.679344 85.426842,44.923313 103.831306,41.659203 
	C106.765991,41.138721 109.757721,40.841339 112.735825,40.687389 
	C117.114288,40.461048 119.519081,42.935684 119.173409,47.079102 
	C117.217201,70.527336 108.256584,90.916603 80.048653,97.862846 
	C79.564400,97.982101 79.078545,98.108559 78.585861,98.177811 
	C71.443764,99.181847 71.443024,99.179634 71.452171,106.406158 
	C71.456810,110.068901 71.583801,113.736511 71.436188,117.393066 
	C71.278366,121.302399 73.057991,122.709366 76.850830,122.637520 
	C84.506454,122.492500 92.167053,122.628677 99.825424,122.601547 
	C103.282036,122.589302 106.453407,123.118011 106.372063,127.487915 
	C106.293365,131.715469 103.216095,132.417618 99.728836,132.412979 
	C78.751114,132.385086 57.773342,132.385620 36.335960,132.367355 
M103.871918,51.804871 
	C88.223114,55.164482 76.963722,63.525360 72.305977,79.447662 
	C70.577415,85.356636 73.727516,88.769707 79.839279,87.546654 
	C93.922104,84.728477 107.100067,69.309158 107.989670,54.846794 
	C108.164276,52.008228 107.154732,51.187901 103.871918,51.804871 
M47.382275,78.116058 
	C44.887550,76.996330 42.585072,75.135841 39.571945,75.873322 
	C38.659595,86.362404 45.658787,97.519623 55.401886,101.281448 
	C56.910976,101.864120 58.507187,102.837822 60.039291,101.336739 
	C61.407894,99.995842 61.219734,98.374344 60.820820,96.677811 
	C58.988560,88.885445 55.128304,82.537445 47.382275,78.116058 
z"/>
<path fill="#000000" opacity="1.000000" stroke="none" 
	d="
M171.608139,152.568619 
	C170.162994,155.170517 168.051544,155.402435 165.805420,155.402130 
	C130.813110,155.397385 95.820786,155.394394 60.828484,155.417877 
	C57.408920,155.420181 54.709885,154.446152 54.741753,150.520889 
	C54.773479,146.612122 57.514980,145.640625 60.903118,145.641922 
	C95.728821,145.655258 130.554535,145.641174 165.380219,145.667816 
	C169.632553,145.671066 172.599869,147.129272 171.608139,152.568619 
z"/>
<path fill="#000000" opacity="1.000000" stroke="none" 
	d="
M110.000229,162.570984 
	C128.141953,162.567932 145.783676,162.561981 163.425385,162.568176 
	C164.921692,162.568710 166.429535,162.548737 167.911652,162.717361 
	C170.418655,163.002609 171.787445,164.616638 172.008499,167.017532 
	C172.215637,169.267136 170.891739,170.757309 168.950012,171.710022 
	C167.231659,172.553146 165.366013,172.331848 163.549118,172.332535 
	C130.096420,172.345306 96.643730,172.342316 63.191040,172.339447 
	C62.192760,172.339371 61.188572,172.367584 60.197292,172.274490 
	C57.057682,171.979721 54.632969,170.770828 54.730103,167.133163 
	C54.830490,163.373688 57.404640,162.594269 60.569660,162.595551 
	C76.879845,162.602097 93.190025,162.582062 110.000229,162.570984 
z"/>
<path fill="#000000" opacity="1.000000" stroke="none" 
	d="
M69.842911,184.840607 
	C69.509773,179.467957 72.798470,178.673965 76.632233,178.659821 
	C86.964996,178.621735 97.297974,178.636688 107.630867,178.636124 
	C121.130310,178.635376 134.629776,178.631592 148.129181,178.652893 
	C149.790482,178.655518 151.513153,178.553604 153.098480,178.943268 
	C155.553360,179.546631 157.326157,181.144028 157.161957,183.892944 
	C157.000305,186.599030 155.249466,188.020874 152.611801,188.340256 
	C151.787628,188.440063 150.948456,188.444550 150.116150,188.444534 
	C125.617203,188.444366 101.118256,188.434937 76.619308,188.437317 
	C73.871559,188.437576 71.204216,188.329422 69.842911,184.840607 
z"/>
<path fill="#000000" opacity="1.000000" stroke="none" 
	d="
M170.893890,88.372208 
	C167.346527,84.001648 170.551270,80.314476 172.284760,77.144432 
	C173.857086,74.269112 177.674973,72.958069 180.897766,71.644196 
	C182.358475,71.048691 183.335785,71.971207 184.223404,73.105492 
	C187.942307,77.857819 188.337997,84.067505 185.453049,89.336121 
	C184.293137,91.454407 182.718796,91.444107 180.855408,90.979317 
	C177.655045,90.181038 174.469345,89.323990 170.893890,88.372208 
z"/>
<path fill="#000000" opacity="1.000000" stroke="none" 
	d="
M160.011688,69.630600 
	C160.028595,66.780510 161.247864,65.592949 163.698257,66.503784 
	C165.367538,67.124275 165.820892,68.800209 164.902664,70.121773 
	C163.467606,72.187248 161.673782,71.839607 160.011688,69.630600 
z"/>
</svg>
