<?xml version="1.0" encoding="utf-8"?>
<!-- Generator: Adobe Illustrator 25.0.1, SVG Export Plug-In . SVG Version: 6.00 Build 0)  -->
<svg version="1.1" id="Layer_1" xmlns="http://www.w3.org/2000/svg" xmlns:xlink="http://www.w3.org/1999/xlink" x="0px" y="0px"
	 viewBox="0 0 94.2 100.1" style="enable-background:new 0 0 94.2 100.1;" xml:space="preserve">
<g id="Cycle_x5F_Hexagon">
	<path d="M47,100.1c-2,0-4-0.5-5.8-1.5L6.8,79.7C2.6,77.4,0,73,0,68.1v-36c0-4.9,2.6-9.3,6.8-11.6L26,9.9c1-0.5,2.2-0.2,2.7,0.8
		s0.2,2.2-0.8,2.7L8.7,24C5.8,25.6,4,28.7,4,32.1v36c0,3.4,1.8,6.5,4.7,8.1l34.4,18.9c2.4,1.3,5.3,1.3,7.7,0l6.2-3.4
		c1-0.5,2.2-0.2,2.7,0.8s0.2,2.2-0.8,2.7l-6.2,3.4C51,99.6,49,100.1,47,100.1z"/>
	<path d="M23.3,25.5c-0.2,0-0.4,0-0.6-0.1c-1.1-0.3-1.6-1.4-1.3-2.5l3.1-9.9l-9.7-3.1c-1.1-0.3-1.6-1.5-1.3-2.5
		C13.8,6.3,15,5.7,16,6.1l11.6,3.7c1,0.3,1.6,1.4,1.3,2.5l-3.7,11.8C25,24.9,24.2,25.5,23.3,25.5z"/>
	<g>
		<path d="M66.9,90.6c-0.7,0-1.4-0.4-1.8-1c-0.5-1-0.2-2.2,0.8-2.7l19.2-10.6c2.9-1.6,4.7-4.7,4.7-8.1V32.1c0-3.4-1.8-6.5-4.7-8.1
			L50.8,5.1c-2.4-1.3-5.3-1.3-7.7,0l-6.2,3.4c-1,0.5-2.2,0.2-2.7-0.8S34,5.5,35,5l6.2-3.4c3.6-2,7.9-2,11.6,0l34.4,18.9
			c4.2,2.3,6.8,6.7,6.8,11.6v36c0,4.9-2.6,9.3-6.8,11.6L67.9,90.3C67.6,90.5,67.3,90.6,66.9,90.6z"/>
		<path d="M78.5,94.3c-0.2,0-0.4,0-0.6-0.1l-11.6-3.7c-1-0.3-1.6-1.4-1.3-2.5l3.7-11.8c0.3-1.1,1.4-1.6,2.5-1.3
			c1.1,0.3,1.6,1.4,1.3,2.5l-3.1,9.9l9.7,3.1c1.1,0.3,1.6,1.5,1.3,2.5C80.2,93.7,79.4,94.3,78.5,94.3z"/>
	</g>
	<path d="M78.5,94.3c-0.2,0-0.4,0-0.6-0.1l-11.6-3.7c-1-0.3-1.6-1.4-1.3-2.5l3.7-11.8c0.3-1.1,1.4-1.6,2.5-1.3
		c1.1,0.3,1.6,1.4,1.3,2.5l-3.1,9.9l9.7,3.1c1.1,0.3,1.6,1.5,1.3,2.5C80.2,93.7,79.4,94.3,78.5,94.3z"/>
</g>
<g id="Your_Icon">
	<g id="Group_274_2_" transform="translate(19483.535 -3999.745) rotate(90)">
		<path d="M4028.7,19425.8L4028.7,19425.8v7.3c0,1.1-0.9,2-2,2s-2-0.9-2-2l0,0v-7.3c0-1.1,0.9-2,2-2
			C4027.8,19423.8,4028.7,19424.7,4028.7,19425.8z"/>
		<path d="M4024.9,19437c0,1.1-0.9,2-2,2h-7.3c-1.1,0-2-0.9-2-2l0,0c0-1.1,0.9-2,2-2h7.3C4024,19435,4024.9,19435.9,4024.9,19437
			L4024.9,19437z"/>
		<path d="M4043.3,19447.5c0,0.5-0.2,1-0.6,1.4l-4.2,4.2c-0.8,0.8-2,0.8-2.8,0s-0.8-2,0-2.8l4.2-4.2c0.8-0.8,2-0.8,2.8,0
			C4043.1,19446.5,4043.3,19447,4043.3,19447.5z"/>
		<path d="M4035.3,19448.6c0,0.3,0,0.7-0.1,1c-0.8,4.1-4.7,7.1-8.6,6.6c-1.9-0.2-3.6-1.2-4.7-2.8c-1.2-1.6-1.6-3.8-1.2-5.9l0,0
			c0.7-3.7,6.6-8.1,7.7-8.9c0.9-0.6,2.1-0.4,2.8,0.4C4031.9,19440,4035.3,19444.9,4035.3,19448.6z M4024.5,19449
			c0,0.7,0.2,1.4,0.6,2c0.3,0.5,0.9,1,2,1.2c1.9,0.2,3.8-1.3,4.2-3.4c0.2-1.1-0.9-3.6-2.2-5.7c-2.2,1.8-4.3,4-4.5,5.2l0,0
			C4024.5,19448.5,4024.5,19448.8,4024.5,19449z"/>
		<path d="M4033.6,19436.6c0,0.5-0.2,1-0.5,1.4c0,0.1-0.1,0.1-0.2,0.2l0,0l-5.5,5.5c-0.8,0.8-2.1,0.9-3,0.1l-0.1-0.1l-1.6-1.6
			c-1.2-1.2-1.9-2.6-1.9-4.2c0-1.5,0.6-2.9,1.9-4.1l0.3-0.3c2.5-2.5,5.8-2.5,8.3,0l1.6,1.6
			C4033.3,19435.5,4033.5,19435.9,4033.6,19436.6C4033.6,19436.4,4033.6,19436.5,4033.6,19436.6z M4030.3,19438L4030.3,19438
			L4030.3,19438z M4030.3,19438L4030.3,19438L4030.3,19438z M4025.9,19439.5l3-2.9l-0.4-0.4c-0.9-0.9-1.7-0.9-2.6,0l-0.3,0.3
			c-0.3,0.3-0.7,0.8-0.7,1.3s0.4,1,0.7,1.3L4025.9,19439.5z"/>
		<path d="M4045.7,19450.4c0,1.4-0.6,2.8-1.7,3.9c-0.1,0.1-0.1,0.1-0.2,0.2c0,0.1-0.1,0.1-0.2,0.2c-2.5,2.5-6.1,2.2-9.1-0.8
			l-2.1-2.1c-0.4-0.4-0.7-1-0.7-1.6l0,0c0-0.6,0.2-1.1,0.6-1.5l5.5-5.5c0.4-0.4,1-0.6,1.5-0.6c0.6,0,1.2,0.2,1.6,0.7l2.1,2.1
			C4044.9,19446.9,4045.7,19448.7,4045.7,19450.4z M4041,19451.7c0-0.1,0.1-0.1,0.2-0.2c0.9-0.9,0.6-2-0.8-3.4l-0.9-0.9l-2.9,3
			l0.9,0.9c1,0.9,2.3,1.9,3.4,0.8C4040.9,19451.8,4041,19451.7,4041,19451.7z M4038.3,19446L4038.3,19446L4038.3,19446z
			 M4035.3,19448.9L4035.3,19448.9C4035.3,19449,4035.3,19449,4035.3,19448.9z M4035.3,19451.5L4035.3,19451.5L4035.3,19451.5z"/>
		<path d="M4045.5,19438.1c0,3.6-2.8,7-6.6,7.8c-3.8,0.7-9.5-3.3-10.6-4.1c-0.9-0.7-1.1-1.9-0.4-2.8c0.8-1.2,5.2-7,8.9-7.7
			c2.1-0.4,4.2,0,5.9,1.2c1.6,1.1,2.5,2.8,2.8,4.7C4045.5,19437.5,4045.5,19437.8,4045.5,19438.1z M4032.4,19439.7
			c2.1,1.3,4.6,2.4,5.7,2.2c2.1-0.4,3.6-2.3,3.4-4.2c-0.1-1-0.7-1.6-1.2-2c-0.8-0.6-1.8-0.7-2.8-0.5
			C4036.4,19435.4,4034.2,19437.5,4032.4,19439.7z"/>
	</g>
	<g>
		<path d="M30.3,80.9c-1.1,0-2-0.9-2-2V66.1c0-1.1,0.9-2,2-2s2,0.9,2,2v12.7C32.3,80,31.4,80.9,30.3,80.9z"/>
		<path d="M26.5,67.5c-0.5,0-1-0.1-1.6-0.2l0,0c-3.5-0.9-6.3-2.5-8.4-4.6C11,57.2,11,48.6,11,48.3c0-1.1,0.9-2,2-2
			c0.4,0,9,0,14.4,5.5c2.1,2.1,3.7,4.9,4.6,8.4c0.6,2,0,4.2-1.5,5.6C29.5,66.9,28,67.5,26.5,67.5z M26,63.4c0.9,0.3,1.6-0.2,1.8-0.5
			c0.2-0.2,0.7-0.8,0.5-1.8c-0.7-2.8-1.9-5-3.6-6.6c-2.8-2.8-6.9-3.8-9.4-4.1c0.3,2.5,1.3,6.6,4.1,9.4C21,61.5,23.2,62.7,26,63.4
			L26,63.4z"/>
		<path d="M33,72.7c-1.1,0-2.2-0.4-3.1-1.2c-1.3-1.3-1.9-3.2-1.5-5.1l0,0c0.7-2.8,1.8-5.1,3.3-6.9c4-4.6,10.3-4.6,10.6-4.6
			c1.1,0,2,0.9,2,2c0,0.3,0,7.3-3.9,11.7c-1.6,1.8-3.6,3.1-6.2,3.9C33.8,72.6,33.4,72.7,33,72.7z M40.1,59.2
			c-1.6,0.3-3.8,1.1-5.4,2.9c-1.1,1.2-1.9,3-2.4,5.1l0,0c-0.1,0.6,0.1,1,0.3,1.3c0.2,0.2,0.4,0.2,0.4,0.1c1.8-0.6,3.3-1.5,4.3-2.7
			C39.2,64,39.9,61.2,40.1,59.2z M30.4,66.8L30.4,66.8L30.4,66.8z"/>
	</g>
	<g>
		<path d="M59.3,60.9c-3.1,0-6.1-0.8-8.8-2.4l-3-1.7l3-1.7c4.5-2.6,6.4-3.8,6.9-8.7c0.7-6.2,4.1-11.2,9.7-14.2l0.2-0.1
			c0.5-0.3,1.1-0.5,1.7-0.7c0.2-0.1,0.3-0.1,0.5-0.2c0.3-0.1,0.5-0.2,0.8-0.2c0.3-0.1,0.6-0.2,0.9-0.2c0.2,0,0.4-0.1,0.7-0.1
			c0.4-0.1,0.8-0.1,1.3-0.2c0.2,0,0.3,0,0.5,0c0.5,0,1-0.1,1.4-0.1s0.7,0,1.1,0c0.1,0,0.2,0,0.3,0c0.1,0,0.2,0,0.3,0
			c4.7,0.7,8.3,4.8,8.4,9.7v2.3L83,42.2c-0.2,0-0.4,0-0.7,0c-3.2,0-5.8,2.6-5.9,5.9C76.1,55.5,67.2,60.9,59.3,60.9z M55.8,56.4
			c1.1,0.3,2.3,0.4,3.4,0.4c5.9,0,12.9-4,13-9.1c0.1-5,3.7-9,8.4-9.7c-0.8-2.1-2.7-3.6-4.9-3.8c-0.6,0-1.2,0-1.8,0h-0.4
			c-0.3,0-0.6,0.1-1,0.1c-0.2,0-0.3,0.1-0.5,0.1c-0.2,0.1-0.5,0.1-0.7,0.2c-0.2,0.1-0.4,0.1-0.6,0.2l-0.3,0.1
			c-0.5,0.2-1,0.4-1.4,0.6h-0.1c-2.5,1.3-6.8,4.6-7.6,11.1C60.8,51.8,58.9,54.3,55.8,56.4z"/>
		<path d="M59.3,54.1c-3.1,0-6.1-0.8-8.8-2.4l-3-1.7l3-1.7c4.8-2.7,7.1-5,8.8-8.6c0.5-1,1.7-1.4,2.7-0.9s1.4,1.7,0.9,2.7
			c-1.8,3.7-4.2,6.1-7.1,8.2c1.1,0.3,2.3,0.5,3.5,0.5c4.3,0,10.8-2.1,13.3-5c0.7-0.8,2-0.9,2.8-0.2s0.9,2,0.2,2.8
			C72.3,51.6,64.5,54.1,59.3,54.1z"/>
		<circle cx="75.2" cy="37" r="1.7"/>
		<path d="M73.5,62.5c-0.9,0-1.7-0.6-1.9-1.5l-1.8-6.6c-0.3-1.1,0.3-2.2,1.4-2.5s2.2,0.3,2.5,1.4l1.8,6.6c0.3,1.1-0.3,2.2-1.4,2.5
			C73.9,62.4,73.7,62.5,73.5,62.5z"/>
		<path d="M69.2,62.5c-0.9,0-1.7-0.6-1.9-1.4l-1-3.4c-0.3-1.1,0.3-2.2,1.4-2.5s2.2,0.3,2.5,1.4l1,3.4c0.3,1.1-0.3,2.2-1.4,2.5
			C69.6,62.4,69.4,62.5,69.2,62.5z"/>
	</g>
	<path d="M55.6,81.2c-2.3,0-4.7-1.1-5.5-3.7c-0.2-0.7-0.7-1.1-1.4-1s-1.6,0.7-1.9,2.3c-0.2,1.1-1.2,1.8-2.3,1.6
		c-1.1-0.2-1.8-1.2-1.6-2.3c0.6-3.2,2.8-5.4,5.5-5.6c2.5-0.2,4.7,1.3,5.5,3.7c0.3,0.9,1.6,1.1,2.3,0.9c0.9-0.2,0.9-0.7,0.9-0.9
		c-0.4-3.1,0.5-6.4,2.3-8.4c1.2-1.4,2.8-2,4.6-2c3.7,0.2,4.9,2.1,5.5,3.1c0.1,0.1,0.2,0.3,0.3,0.4c0.7,0.8,0.7,2.1,0,2.8
		c-0.8,0.8-2,0.8-2.8,0c-0.4-0.4-0.6-0.8-0.8-1.1c-0.5-0.8-0.7-1.2-2.3-1.2c-0.3,0-0.9,0-1.4,0.7c-1,1.1-1.6,3.2-1.3,5.2
		c0.3,2.6-1.2,4.7-3.9,5.3C56.6,81.2,56.1,81.2,55.6,81.2z"/>
	<path d="M56.5,77.3c-1,0-1.9-0.7-2-1.7c-0.4-3.2,0.5-6.5,2.3-8.5c1.2-1.4,2.8-2.1,4.6-2c1.1,0,2,1,1.9,2.1s-1,2-2.1,1.9
		c-0.3,0-0.9,0-1.4,0.7c-1,1.1-1.6,3.2-1.3,5.2c0.1,1.1-0.6,2.1-1.7,2.2C56.6,77.3,56.5,77.3,56.5,77.3z"/>
</g>
</svg>
