<?xml version="1.0" encoding="utf-8"?>
<!-- Generator: Adobe Illustrator 25.0.1, SVG Export Plug-In . SVG Version: 6.00 Build 0)  -->
<svg version="1.1" id="Layer_1" xmlns="http://www.w3.org/2000/svg" xmlns:xlink="http://www.w3.org/1999/xlink" x="0px" y="0px"
	 viewBox="0 0 97.1 100.1" style="enable-background:new 0 0 97.1 100.1;" xml:space="preserve">
<style type="text/css">
	.st0{fill:none;}
</style>
<g id="Your_Icon">
	<g>
		<path d="M50.9,81.9c-1.1,0-2-0.9-2-2V22.4c0-1.1,0.9-2,2-2s2,0.9,2,2v57.6C52.9,81,52,81.9,50.9,81.9z"/>
		<path d="M51.1,82.4c-0.8,0-1.6-0.5-1.9-1.4c-0.3-1.1,0.2-2.2,1.3-2.5c8.7-2.8,15.1-14.3,15.1-27.3c0-13.1-6.4-24.6-15.3-27.4
			c-1.1-0.3-1.6-1.4-1.3-2.5s1.4-1.6,2.5-1.3c10.7,3.3,18.1,16.1,18.1,31.2c0,14.9-7.3,27.7-17.9,31.1
			C51.6,82.3,51.3,82.4,51.1,82.4z"/>
		<path d="M42,30.8c-0.4,0-0.8-0.1-1.1-0.3c-0.9-0.6-1.2-1.8-0.6-2.8c2.3-3.5,6.1-6.5,9.8-7.7c1.1-0.3,2.2,0.2,2.5,1.3
			c0.3,1.1-0.2,2.2-1.3,2.5c-2.8,0.9-5.9,3.4-7.6,6.1C43.3,30.5,42.6,30.8,42,30.8z"/>
		<path d="M50.9,83.5c-3.5,0-5.8-0.4-9-1.4c-1.1-0.3-1.6-1.5-1.3-2.5s1.5-1.6,2.5-1.3c2.8,0.9,4.8,1.2,7.8,1.2
			c16.2,0,29.3-13.2,29.3-29.3c0-16.2-13.2-29.3-29.3-29.3c-4.8,0-9.5,1.2-13.7,3.4c-1,0.5-2.2,0.1-2.7-0.8c-0.5-1-0.1-2.2,0.8-2.7
			c4.8-2.5,10.2-3.9,15.6-3.9c18.4,0,33.3,14.9,33.3,33.3S69.3,83.5,50.9,83.5z"/>
		<path d="M80.1,51.8c-0.7,0-1.4-0.4-1.8-1C76.1,46.5,65.7,42,51,42c-1.8,0-4.7,0.3-6.8,0.5l-1.5,0.2c-1.1,0.1-2.1-0.7-2.2-1.8
			s0.7-2.1,1.8-2.2l1.5-0.2C46,38.3,48.9,38,51,38c15,0,27.4,4.4,30.9,10.8c0.5,1,0.2,2.2-0.8,2.7C80.8,51.7,80.5,51.8,80.1,51.8z"
			/>
		<path d="M47.7,64c-0.8,0-1.8-0.1-3.2-0.4c-1.1-0.2-1.8-1.3-1.5-2.4c0.2-1.1,1.3-1.8,2.4-1.5c1.7,0.3,2.3,0.3,3.4,0.3
			c0.6,0,1.2-0.1,2.1-0.1c13.2,0,24.8-4.5,27.4-10.8c0.4-1,1.6-1.5,2.6-1.1c1,0.4,1.5,1.6,1.1,2.6c-3.3,7.8-16.1,13.2-31.1,13.2
			c-0.8,0-1.4,0-1.9,0.1C48.5,64,48.1,64,47.7,64z"/>
	</g>
	<g>
		<line class="st0" x1="29.3" y1="41" x2="29.3" y2="65.3"/>
		<path d="M29.3,67.3c-1.1,0-2-0.9-2-2V41c0-1.1,0.9-2,2-2s2,0.9,2,2v24.3C31.3,66.4,30.4,67.3,29.3,67.3z"/>
	</g>
	<path d="M29.5,83.3c-0.2,0-0.5,0-0.7,0c-7.4-0.3-13.5-6.7-13.5-14.1c0-4.5,2-8.6,5.5-11.3c0-0.3-0.1-0.6-0.1-1V26.7
		c0-2.5,1.1-4.9,3-6.6c1.9-1.7,4.5-2.4,7-2c4.2,0.6,7.4,4.4,7.4,8.8v30.1c0,0.3,0,0.6-0.1,1c3.5,2.7,5.5,6.8,5.5,11.2
		c0,3.9-1.6,7.6-4.4,10.3C36.6,81.9,33.2,83.3,29.5,83.3z M29.5,21.9c-1.1,0-2.2,0.4-3.1,1.2c-1,0.9-1.6,2.2-1.6,3.6v30.3
		c0,0.4,0.1,0.9,0.2,1.3c0.2,0.9-0.1,1.8-0.9,2.2c-3,1.9-4.8,5.1-4.8,8.7c0,5.3,4.4,9.9,9.7,10.1c2.8,0.1,5.5-0.9,7.5-2.8
		c2-1.9,3.2-4.6,3.2-7.4c0-3.5-1.8-6.7-4.8-8.6c-0.8-0.5-1.1-1.4-0.9-2.2c0.1-0.4,0.2-0.9,0.2-1.3V26.9c0-2.5-1.7-4.5-4-4.9
		C30,22,29.7,21.9,29.5,21.9z"/>
	<g>
		<circle cx="29.7" cy="69.1" r="5.5"/>
		<path d="M29.7,76.6c-4.1,0-7.5-3.3-7.5-7.5s3.3-7.5,7.5-7.5s7.5,3.3,7.5,7.5S33.8,76.6,29.7,76.6z M29.7,65.7
			c-1.9,0-3.5,1.6-3.5,3.5s1.6,3.5,3.5,3.5c1.9,0,3.5-1.6,3.5-3.5S31.6,65.7,29.7,65.7z"/>
	</g>
</g>
<g id="Modifier_x5F_Down">
	<path d="M93.5,72.6c0.4-1.2,0.6-2.5,0.6-3.8V31.3c0-4.4-2.4-8.4-6.2-10.5l-35-19.2c-3.6-2-7.9-2-11.5,0l-35,19.2
		c-3.8,2.1-6.2,6.1-6.2,10.5v37.6c0,4.4,2.4,8.4,6.2,10.5l35,19.2c1.8,1,3.8,1.5,5.8,1.5s4-0.5,5.8-1.5l12.6-6.9
		c3,5,8.4,8.4,14.6,8.4c9.4,0,17-7.6,17-17C97.1,79.2,95.8,75.5,93.5,72.6z M89.5,84.5l-7.7,7.7c-0.1,0.1-0.1,0.2-0.2,0.3
		c-0.4,0.4-0.9,0.6-1.4,0.6c0,0,0,0,0,0s0,0,0,0c-0.1,0-0.3,0-0.4,0c-0.1,0-0.1,0-0.2-0.1c-0.1,0-0.1,0-0.2-0.1
		c-0.1,0-0.1-0.1-0.2-0.1c0,0-0.1,0-0.1-0.1c-0.2-0.1-0.4-0.3-0.5-0.5l-7.7-7.7c-0.8-0.8-0.8-2,0-2.8s2-0.8,2.8,0l4.5,4.5V75.1
		c0-1.1,0.9-2,2-2s2,0.9,2,2v11.2l4.6-4.6c0.8-0.8,2-0.8,2.8,0S90.3,83.7,89.5,84.5z M90.1,68.9c0,0.2,0,0.3,0,0.5
		c-2.8-2-6.2-3.3-10-3.3c-9.4,0-17,7.6-17,17c0,1.7,0.3,3.4,0.7,4.9L51,95.1c-2.4,1.3-5.3,1.3-7.7,0l-35-19.2
		c-2.6-1.4-4.2-4.1-4.2-7V31.3c0-2.9,1.6-5.6,4.1-7l35-19.2c1.2-0.7,2.5-1,3.8-1s2.6,0.3,3.8,1l35,19.2c2.6,1.4,4.2,4.1,4.2,7V68.9z
		"/>
</g>
</svg>
