<?xml version="1.0" encoding="utf-8"?>
<!-- Generator: Adobe Illustrator 25.4.1, SVG Export Plug-In . SVG Version: 6.00 Build 0)  -->
<svg version="1.1" id="Layer_1" xmlns="http://www.w3.org/2000/svg" xmlns:xlink="http://www.w3.org/1999/xlink" x="0px" y="0px"
	 viewBox="0 0 94.2 100.1" style="enable-background:new 0 0 94.2 100.1;" xml:space="preserve">
<g id="Default_x5F_Hexagon">
	<g id="Default">
		<path d="M47.1,100.1c-2,0-4-0.5-5.8-1.5l-35-19.2c-3.8-2.1-6.2-6.1-6.2-10.5V31.3c0-4.4,2.4-8.4,6.2-10.5l35-19.2
			c3.6-2,7.9-2,11.5,0l35,19.2c3.8,2.1,6.2,6.1,6.2,10.5v37.6c0,4.4-2.4,8.4-6.2,10.5l-35,19.2C51.1,99.6,49.1,100.1,47.1,100.1z
			 M47.1,4.1c-1.3,0-2.6,0.3-3.9,1l-35,19.2c-2.6,1.4-4.1,4.1-4.1,7v37.6c0,2.9,1.6,5.6,4.1,7l35,19.2c2.4,1.3,5.3,1.3,7.7,0
			l35-19.2c2.6-1.4,4.2-4.1,4.2-7V31.3c0-2.9-1.6-5.6-4.2-7l-35-19.2C49.7,4.4,48.4,4.1,47.1,4.1z"/>
	</g>
</g>
<g id="Your_Icon">
	<g>
		<path d="M70.2,67.4c-1.1,0-2-0.9-2-2v-7.8c0-1.1,0.9-2,2-2s2,0.9,2,2v7.8C72.2,66.5,71.3,67.4,70.2,67.4z"/>
		<path d="M79.2,61.7c-0.4,0-0.8-0.1-1.1-0.3l-9-6.1c-0.9-0.6-1.1-1.9-0.5-2.8c0.6-0.9,1.9-1.1,2.8-0.5l9,6.1
			c0.9,0.6,1.1,1.9,0.5,2.8C80.5,61.4,79.8,61.7,79.2,61.7z"/>
		<path d="M79.2,54.1c-0.4,0-0.8-0.1-1.2-0.4l-9-6.8c-0.9-0.7-1.1-1.9-0.4-2.8c0.7-0.9,1.9-1.1,2.8-0.4l9,6.8
			c0.9,0.7,1.1,1.9,0.4,2.8C80.4,53.9,79.8,54.1,79.2,54.1z"/>
		<path d="M76.9,44.2c-0.4,0-0.8-0.1-1.2-0.4l-6.3-4.7c-0.9-0.7-1.1-1.9-0.4-2.8c0.7-0.9,1.9-1.1,2.8-0.4l6.2,4.7
			c0.9,0.7,1.1,1.9,0.4,2.8C78.1,43.9,77.5,44.2,76.9,44.2z"/>
		<path d="M64.4,44.2c-0.6,0-1.2-0.3-1.6-0.8c-0.7-0.9-0.5-2.1,0.4-2.8l6.2-4.7c0.9-0.7,2.1-0.5,2.8,0.4c0.7,0.9,0.5,2.1-0.4,2.8
			l-6.2,4.7C65.2,44,64.8,44.2,64.4,44.2z"/>
		<path d="M64.4,59.6c-0.6,0-1.3-0.3-1.7-0.9c-0.6-0.9-0.4-2.2,0.5-2.8l5.8-4c0.9-0.6,2.2-0.4,2.8,0.5c0.6,0.9,0.4,2.2-0.5,2.8
			l-5.8,4C65.2,59.5,64.8,59.6,64.4,59.6z"/>
		<path d="M61.2,54.1c-0.6,0-1.2-0.3-1.6-0.8c-0.7-0.9-0.5-2.1,0.4-2.8l9-6.8c0.9-0.7,2.1-0.5,2.8,0.4c0.7,0.9,0.5,2.1-0.4,2.8
			l-9,6.8C62.1,54,61.7,54.1,61.2,54.1z"/>
	</g>
	<g>
		<path d="M23,59.6c-0.6,0-1.2-0.3-1.6-0.8l-2-2.8c-0.6-0.9-0.4-2.1,0.5-2.8c0.9-0.6,2.2-0.4,2.8,0.5l2,2.8c0.6,0.9,0.4,2.1-0.5,2.8
			C23.8,59.5,23.4,59.6,23,59.6z"/>
		<path d="M18.6,53.5c-1.1,0-2-0.9-2-2s0.9-2,2-2l10.9-0.2c1.1,0,2,0.9,2,2s-0.9,2-2,2L18.6,53.5C18.7,53.5,18.6,53.5,18.6,53.5z"/>
		<path d="M25.1,47.1L25.1,47.1l-11.3-0.3c-1.1,0-2-1-1.9-2.1s0.9-2,2.1-1.9l11.2,0.3c1.1,0,2,1,1.9,2.1
			C27.1,46.3,26.2,47.1,25.1,47.1z"/>
		<path d="M17.5,40.3C17.4,40.3,17.4,40.3,17.5,40.3l-7.9-0.2c-1.1,0-2-1-1.9-2.1c0-1.1,0.9-2,2.1-1.9l7.8,0.2c1.1,0,2,1,1.9,2.1
			C19.4,39.5,18.5,40.3,17.5,40.3z"/>
		<path d="M7.3,47.5c-0.2,0-0.4,0-0.6-0.1c-1.1-0.3-1.6-1.5-1.3-2.5l2.4-7.4c0.3-1.1,1.5-1.6,2.5-1.3c1.1,0.3,1.6,1.5,1.3,2.5
			l-2.4,7.4C8.9,47,8.1,47.5,7.3,47.5z"/>
		<path d="M14.8,63.7c-0.2,0-0.5,0-0.7-0.1c-1-0.4-1.6-1.5-1.2-2.6l3.8-10.2c0.4-1,1.5-1.6,2.6-1.2c1,0.4,1.6,1.5,1.2,2.6l-3.8,10.2
			C16.4,63.2,15.7,63.7,14.8,63.7z"/>
		<path d="M10.5,57.5c-0.2,0-0.4,0-0.6-0.1c-1.1-0.3-1.6-1.5-1.3-2.5L12,44.2c0.3-1.1,1.5-1.6,2.5-1.3c1.1,0.3,1.6,1.5,1.3,2.5
			l-3.4,10.7C12.1,56.9,11.3,57.5,10.5,57.5z"/>
	</g>
	<path d="M24.1,67.4c-1.1,0-2-0.9-2-2v-2.9c0-1.1,0.9-2,2-2s2,0.9,2,2v2.9C26.1,66.5,25.3,67.4,24.1,67.4z"/>
	<g>
		<path d="M45.9,59.6c-0.6,0-1.2-0.3-1.6-0.8l-2-2.8c-0.6-0.9-0.4-2.1,0.5-2.8c0.9-0.6,2.2-0.4,2.8,0.5l2,2.8
			c0.6,0.9,0.4,2.1-0.5,2.8C46.7,59.5,46.3,59.6,45.9,59.6z"/>
		<path d="M41.6,53.5c-1.1,0-2-0.9-2-1.9c0-1.1,0.8-2,1.9-2.1l6.7-0.2c0,0,0,0,0.1,0c1.1,0,2,0.9,2,1.9c0,1.1-0.8,2-1.9,2.1
			L41.6,53.5L41.6,53.5z"/>
		<path d="M41.9,47.1L41.9,47.1l-5.1-0.3c-1.1-0.1-1.9-1-1.9-2.1s1-1.9,2.1-1.9l5,0.3c1.1,0.1,1.9,1,1.9,2.1
			C43.8,46.3,42.9,47.1,41.9,47.1z"/>
		<path d="M35.1,40.3c-0.1,0-0.1,0-0.2,0l-2.5-0.2c-1.1-0.1-1.9-1.1-1.8-2.2s1.1-1.9,2.2-1.8l2.5,0.2c1.1,0.1,1.9,1.1,1.8,2.2
			C37,39.5,36.2,40.3,35.1,40.3z"/>
		<path d="M30.2,47.5c-0.2,0-0.4,0-0.6-0.1c-1.1-0.3-1.6-1.5-1.3-2.5l2.4-7.4c0.3-1.1,1.5-1.6,2.5-1.3c1.1,0.3,1.6,1.5,1.3,2.5
			l-2.4,7.4C31.9,47,31.1,47.5,30.2,47.5z"/>
		<path d="M37.8,63.7c-0.2,0-0.5,0-0.7-0.1c-1-0.4-1.6-1.5-1.2-2.6l3.8-10.2c0.4-1,1.5-1.6,2.6-1.2c1,0.4,1.6,1.5,1.2,2.6l-3.8,10.2
			C39.4,63.2,38.6,63.7,37.8,63.7z"/>
		<path d="M33.4,57.5c-0.2,0-0.4,0-0.6-0.1c-1.1-0.3-1.6-1.5-1.3-2.5l3.4-10.7c0.3-1.1,1.5-1.6,2.5-1.3c1.1,0.3,1.6,1.5,1.3,2.5
			l-3.4,10.7C35.1,56.9,34.3,57.5,33.4,57.5z"/>
	</g>
	<path d="M47.1,67.4c-1.1,0-2-0.9-2-2v-2.9c0-1.1,0.9-2,2-2s2,0.9,2,2v2.9C49.1,66.5,48.2,67.4,47.1,67.4z"/>
	<path d="M78.6,83.6c-0.5,0-1-0.2-1.4-0.6L13.7,19.6c-0.8-0.8-0.8-2,0-2.8c0.8-0.8,2-0.8,2.8,0l63.4,63.4c0.8,0.8,0.8,2,0,2.8
		C79.6,83.4,79.1,83.6,78.6,83.6z"/>
</g>
</svg>
