<?xml version="1.0" encoding="UTF-8"?>
<svg xmlns="http://www.w3.org/2000/svg" id="图层_1" data-name="图层 1" viewBox="0 0 100 100">
  <g id="Group_468" data-name="Group 468">
    <g id="Line_194" data-name="Line 194">
      <path d="M39.06,68.57a2,2,0,0,1-2-2V58.63a2,2,0,1,1,4,0v7.94A2,2,0,0,1,39.06,68.57Z"></path>
    </g>
    <g id="Path_1001" data-name="Path 1001">
      <path d="M41,60.27A4.38,4.38,0,0,1,36.81,57a4.28,4.28,0,0,1,0-2.3,12.21,12.21,0,0,1,3-5.56c3.63-3.63,9.29-3.64,9.52-3.63a2,2,0,0,1,2,2c0,.24,0,5.9-3.62,9.52a12.26,12.26,0,0,1-5.57,3.06A4.52,4.52,0,0,1,41,60.27Zm6.05-10.44A8.93,8.93,0,0,0,42.69,52a8.39,8.39,0,0,0-2,3.78.37.37,0,0,0,0,.21.38.38,0,0,0,.46.27h0a8.1,8.1,0,0,0,3.78-2A8.89,8.89,0,0,0,47.09,49.83Z"></path>
    </g>
    <g id="Path_1002" data-name="Path 1002">
      <path d="M37,63.44a3.67,3.67,0,0,1-1-.15,8.94,8.94,0,0,1-4.19-2.63c-2.58-2.94-2.62-7.31-2.62-7.8a2,2,0,0,1,2-2A10.14,10.14,0,0,1,38.32,54a10.48,10.48,0,0,1,2.22,4.6h0a4.08,4.08,0,0,1-1.13,3.9A3.55,3.55,0,0,1,37,63.44ZM33.5,55.37A6.78,6.78,0,0,0,34.78,58a4.78,4.78,0,0,0,1.81,1.24,6.56,6.56,0,0,0-1.28-2.65A4.77,4.77,0,0,0,33.5,55.37Z"></path>
    </g>
  </g>
  <g id="Water_Cycle" data-name="Water Cycle">
    <path d="M50.7,99.94a12,12,0,0,1-5.78-1.49L10.5,79.55A13.21,13.21,0,0,1,3.7,68v-36a13.21,13.21,0,0,1,6.8-11.6L29.73,9.76a2,2,0,0,1,1.92,3.5L12.43,23.82A9.19,9.19,0,0,0,7.7,31.91V68A9.18,9.18,0,0,0,12.43,76l34.42,18.9a8,8,0,0,0,7.71,0l6.06-3.33a2,2,0,0,1,1.93,3.51l-6.06,3.33A12.06,12.06,0,0,1,50.7,99.94Z"></path>
    <path d="M28.05,24.75a2.06,2.06,0,0,1-.59-.09,2,2,0,0,1-1.32-2.51l3.07-9.91-9.7-3.12a2,2,0,0,1,1.23-3.81L32.32,9a2,2,0,0,1,1.3,2.49L30,23.34A2,2,0,0,1,28.05,24.75Z"></path>
    <path d="M70.65,90.39a2,2,0,0,1-1-3.75L88.9,76.09A9.19,9.19,0,0,0,93.63,68V32a9.19,9.19,0,0,0-4.73-8.1L54.48,5a8,8,0,0,0-7.71,0L40.71,8.29a2,2,0,1,1-1.93-3.5l6.06-3.33a12,12,0,0,1,11.57,0L90.83,20.35A13.22,13.22,0,0,1,97.63,32V68a13.21,13.21,0,0,1-6.8,11.6L71.61,90.15A2,2,0,0,1,70.65,90.39Z"></path>
    <path d="M81.21,94.69a1.91,1.91,0,0,1-.62-.1L69,90.87a2,2,0,0,1-1.3-2.5l3.66-11.8a2,2,0,0,1,3.82,1.18l-3.07,9.92,9.7,3.11a2,2,0,0,1-.61,3.91Z"></path>
  </g>
  <path d="M85.17,70.59h-69a2,2,0,1,1,0-4h69a2,2,0,0,1,0,4Z"></path>
  <path d="M24.05,69.44a2,2,0,0,1-2-2V62.6a2,2,0,0,1,4,0v4.84A2,2,0,0,1,24.05,69.44Z"></path>
  <path d="M59.58,37.36A2,2,0,0,1,58.14,34l8-8.21a2,2,0,0,1,1.42-.6,2,2,0,0,1,1.43.59L77.18,34a2,2,0,0,1-2.83,2.82L67.58,30,61,36.75A2,2,0,0,1,59.58,37.36Z"></path>
  <path d="M77.68,48.59A2,2,0,0,1,76.27,48l-8.72-8.72L59.09,48a2,2,0,0,1-2.87-2.79L66.1,35a2,2,0,0,1,1.42-.61,2,2,0,0,1,1.42.59L79.1,45.17a2,2,0,0,1-1.42,3.42Z"></path>
  <path d="M55.32,60a2,2,0,0,1-1.39-.56,2,2,0,0,1,0-2.83L66.06,44.11a2,2,0,0,1,1.42-.61,2.27,2.27,0,0,1,1.43.59L81.43,56.61a2,2,0,1,1-2.83,2.83L67.52,48.35,56.76,59.42A2,2,0,0,1,55.32,60Z"></path>
  <path d="M67.67,68.55a2,2,0,0,1-2-2v-12a2,2,0,0,1,4,0v12A2,2,0,0,1,67.67,68.55Z"></path>
</svg>
