<?xml version="1.0" encoding="utf-8"?>
<!-- Generator: Adobe Illustrator 25.4.1, SVG Export Plug-In . SVG Version: 6.00 Build 0)  -->
<svg version="1.1" id="Layer_1" xmlns="http://www.w3.org/2000/svg" xmlns:xlink="http://www.w3.org/1999/xlink" x="0px" y="0px"
	 viewBox="0 0 100 100" enable-background="new 0 0 100 100" xml:space="preserve">
<g>
	<path fill="#231F20" d="M60,69c-0.2,0-5.5,0-8.9,3.4c-0.959,0.89-1.67,2.029-2.224,3.324C46.437,73.801,43.374,73.8,43.2,73.8
		c-1.1,0-2,0.9-2,2c-0.1,0.5,0,4.5,2.4,7.3c1,1.2,2.3,2,3.9,2.5c0.15,0.05,0.325,0.1,0.5,0.138V88.5c0,1.1,0.9,2,2,2s2-0.9,2-2
		v-5.619c0.068,0.003,0.132,0.019,0.2,0.019c0.4,0,0.8-0.1,1.2-0.1c2.1-0.6,3.9-1.6,5.2-2.9C62,76.5,62,71.2,62,71
		C62,69.9,61.1,69,60,69z M46.6,80.5c-0.4-0.5-0.8-1.3-1-2c0.4,0.3,0.9,0.6,1.3,1c0.4,0.4,0.7,1.2,1,2
		C47.4,81.2,46.9,80.9,46.6,80.5z M55.7,77c-0.8,0.8-2,1.4-3.4,1.8c-0.1,0.1-0.1,0.1-0.2,0c0-0.1,0-0.1,0-0.2c0.4-1.4,1-2.6,1.8-3.4
		c1-1.1,2.5-1.6,3.7-1.9C57.3,74.5,56.8,76,55.7,77z"/>
	<path fill="#231F20" d="M80,57.6c-0.3,0-5.5,0-8.9,3.4c-0.978,0.908-1.701,2.072-2.259,3.401C66.388,62.503,63.287,62.5,63.2,62.5
		c-1.1,0-2,0.9-2,2c-0.1,0.5,0,4.5,2.4,7.3c1,1.2,2.3,2,3.9,2.5c0.15,0.1,0.325,0.15,0.5,0.175V77.2c0,1.1,0.9,2,2,2
		c1.2,0,2-0.9,2-2v-5.719c0.068,0.003,0.132,0.019,0.2,0.019c0.4,0,0.8,0,1.2-0.1c2.1-0.6,3.9-1.6,5.2-2.9c3.4-3.4,3.4-8.7,3.4-8.9
		C82,58.5,81.1,57.6,80,57.6z M66.7,69.2c-0.5-0.5-0.9-1.3-1.1-2c0.4,0.2,0.9,0.5,1.3,1c0.5,0.4,0.8,1.2,1.1,2
		C67.5,69.9,67,69.6,66.7,69.2z M75.7,65.7c-0.8,0.8-2,1.4-3.4,1.8c-0.1,0.1-0.1,0.1-0.2,0c0-0.1,0-0.1,0-0.2c0.4-1.4,1-2.6,1.8-3.4
		c1-1.1,2.5-1.6,3.7-1.9C77.3,63.2,76.8,64.6,75.7,65.7z"/>
	<path fill="#231F20" d="M96.9,56.662V31.2c0-4.4-2.4-8.4-6.2-10.5l-16.727-9.176c-0.25-0.29-0.574-0.51-0.973-0.624
		c-0.028-0.014-0.146-0.049-0.327-0.089L55.7,1.5c-3.6-2-7.9-2-11.5,0l-35,19.2C5.4,22.8,3,26.8,3,31.2v22.383
		c-0.039,0.381-0.038,0.747,0,1.095V68.8c0,4.4,2.4,8.4,6.2,10.5l35,19.2c1.8,1,3.8,1.5,5.8,1.5s4-0.5,5.7-1.5l35-19.2
		c3.8-2.1,6.2-6.1,6.2-10.5V57.966C97.044,57.554,97.048,57.098,96.9,56.662z M89,30.8c0.4-1.4,1-2.6,1.8-3.4
		c0.248-0.199,0.521-0.422,0.819-0.633c0.486,0.717,0.865,1.501,1.096,2.338c-0.038,0.033-0.078,0.059-0.115,0.095
		c-0.8,0.8-2,1.4-3.4,1.8c-0.1,0.1-0.1,0.1-0.2,0C89,30.9,89,30.9,89,30.8z M93,55.976c-0.226,0.076-0.449,0.153-0.7,0.224
		c-0.1,0.1-0.1,0.1-0.2,0c0-0.1,0-0.1,0-0.2c0.231-0.808,0.536-1.536,0.9-2.172V55.976z M70.5,14.6c0,0.9-0.3,2.2-1.4,3.2
		c-0.8,0.8-2,1.4-3.4,1.8c-0.1,0.1-0.1,0.1-0.2,0c0-0.1,0-0.1,0-0.2c0.4-1.4,1-2.6,1.8-3.4C68.4,14.9,69.6,14.6,70.5,14.6z
		 M88.8,75.8L53.8,95c-2.4,1.3-5.3,1.3-7.7,0l-35-19.2c-2.5-1.4-4.1-4.1-4.1-7V57.76c0.127-0.002,0.256,0.004,0.4,0.04
		c2.1-0.6,3.9-1.6,5.2-2.9C16,51.5,16,46.2,16,46c0-1.1-0.9-2-2-2c-0.248,0-3.841,0.006-7,1.925V31.2c0-2.9,1.5-5.6,4.1-7L46.1,5
		c1.3-0.7,2.6-1,3.9-1s2.6,0.3,3.8,1l12.517,6.867c-0.583,0.349-1.162,0.778-1.717,1.333c-0.992,0.922-1.724,2.104-2.285,3.457
		C59.851,14.701,56.688,14.7,56.6,14.7c-1.1,0-2,0.9-2,2c-0.079,0.396-0.028,2.983,1.184,5.433C55.428,21.575,54.807,21.2,54.1,21.2
		c-0.3,0-5.5,0-8.9,3.4c-0.959,0.89-1.67,2.029-2.224,3.324C40.537,26.001,37.474,26,37.3,26c-1.1,0-2,0.9-2,2
		c-0.1,0.5,0,4.5,2.4,7.3c1,1.2,2.3,2,3.9,2.5c0.15,0.1,0.325,0.15,0.5,0.175V40.7c0,1.1,0.9,2,2,2c1.1,0,2-0.9,2-2v-5.619
		c0.068,0.003,0.132,0.019,0.2,0.019c0.3,0,0.7-0.1,1.2-0.1c2.1-0.6,3.9-1.6,5.2-2.9c3.4-3.4,3.4-8.7,3.4-8.9
		c0-0.26-0.054-0.508-0.145-0.737C56.243,22.995,56.585,23.516,57,24c1,1.2,2.4,2,4,2.5c0.15,0.05,0.325,0.075,0.5,0.087V29.3
		c0,1.1,0.9,2,2,2s2-0.9,2-2v-5.619c0.068,0.003,0.132,0.019,0.2,0.019c0.3,0,0.7-0.1,1.2-0.1c2.1-0.6,3.9-1.6,5.2-2.9
		c1.409-1.409,2.078-2.969,2.37-4.361l14.042,7.703c-0.214,0.18-0.419,0.365-0.612,0.558c-0.959,0.891-1.671,2.03-2.225,3.326
		C83.218,26.001,80.087,26,80,26c-1.1,0-2,0.9-2,2c0,0.5,0,4.5,2.4,7.3c1,1.2,2.3,2,3.9,2.5c0.15,0.1,0.325,0.15,0.5,0.175V40.7
		c0,1.1,0.9,2,2,2c1.1,0,2-0.9,2-2v-5.619c0.068,0.003,0.132,0.019,0.2,0.019c0.3,0,0.7-0.1,1.2-0.2
		c1.012-0.289,1.95-0.676,2.8-1.14v14.473c-0.704,0.422-1.352,0.918-1.9,1.466c-0.959,0.891-1.671,2.03-2.225,3.326
		C86.418,51.101,83.287,51.1,83.2,51.1c-1.1,0-2,0.9-2,2c-0.1,0.5,0,4.5,2.4,7.3c1,1.2,2.3,2,3.9,2.5
		c0.179,0.119,0.392,0.164,0.6,0.183V65.8c0,1.1,0.9,2,2,2c1.1,0,2-0.9,2-2v-5.609c0.034,0.001,0.066,0.009,0.1,0.009
		c0.283,0,0.552-0.042,0.8-0.071V68.8C93,71.7,91.4,74.4,88.8,75.8z M7.1,53.5c0.2-0.5,0.2-1.1,0.3-1.6c0.1-1,0.1-1.5,0.5-1.8
		c1-1.1,2.5-1.6,3.7-1.9c-0.2,1.2-0.8,2.7-1.9,3.7C9.1,52.6,8.2,53.1,7.1,53.5z M61.3,22.3c-0.5-0.3-1-0.6-1.3-1
		c-0.4-0.5-0.8-1.3-1-2c0.5,0.3,0.9,0.6,1.2,1C60.7,20.8,61,21.5,61.3,22.3z M51.7,25.5c-0.3,1.2-0.9,2.7-1.9,3.7
		c-0.8,0.8-2,1.4-3.4,1.8c-0.1,0.1-0.1,0.1-0.2,0c0-0.1,0-0.1,0-0.2c0.4-1.4,1-2.6,1.8-3.4C49,26.3,50.5,25.8,51.7,25.5z M41.9,33.7
		c-0.5-0.3-1-0.6-1.3-1c-0.4-0.5-0.8-1.3-1-2c0.5,0.3,0.9,0.6,1.2,1C41.3,32.2,41.6,32.9,41.9,33.7z M84.6,33.7
		c-0.5-0.3-1-0.6-1.3-1c-0.4-0.5-0.8-1.3-1-2c0.5,0.3,0.9,0.6,1.2,1C84,32.2,84.3,32.9,84.6,33.7z M87.9,58.8c-0.5-0.3-1-0.6-1.3-1
		c-0.4-0.5-0.8-1.3-1-2c0.4,0.3,0.9,0.6,1.2,1C87.3,57.3,87.6,58,87.9,58.8z"/>
	<path fill="#231F20" d="M37.1,56.4c-0.2,0-5.5,0-8.9,3.4c-0.978,0.908-1.7,2.071-2.258,3.398C23.508,61.303,20.474,61.3,20.3,61.3
		c-1.1,0-2,0.9-2,2c-0.1,0.5,0,4.5,2.4,7.3c1,1.2,2.3,2,3.9,2.5c0.179,0.119,0.392,0.164,0.6,0.183V75.9c0,1.1,0.9,2,2,2
		c1.1,0,2-0.8,2-2v-5.609c0.034,0.001,0.066,0.009,0.1,0.009c0.4,0,0.8,0,1.2-0.1c2.1-0.6,3.9-1.6,5.2-2.9c3.4-3.4,3.4-8.7,3.4-8.9
		C39.1,57.3,38.2,56.4,37.1,56.4z M23.7,68c-0.4-0.5-0.8-1.3-1-2c0.4,0.2,0.9,0.5,1.2,1c0.5,0.5,0.8,1.2,1.1,2
		C24.5,68.7,24,68.4,23.7,68z M32.8,64.5c-0.8,0.8-2,1.4-3.4,1.8c-0.1,0.1-0.1,0.1-0.2,0c0-0.1,0-0.1,0-0.2c0.4-1.4,1-2.6,1.8-3.4
		c1-1.1,2.5-1.6,3.7-1.9C34.4,62,33.9,63.4,32.8,64.5z"/>
	<path fill="#231F20" d="M44.7,61.7c0.15,0.1,0.325,0.15,0.5,0.175V64.6c0,1.1,0.9,2,2,2c1.1,0,2-0.9,2-2v-5.609
		C49.234,58.991,49.266,59,49.3,59c0.4,0,0.8-0.1,1.2-0.1c2.1-0.6,3.9-1.6,5.2-2.9c3.4-3.4,3.4-8.7,3.4-8.9c0-1.1-0.9-2-2-2
		c-0.2,0-5.5,0-8.9,3.4c-0.945,0.878-1.648,1.997-2.198,3.269C43.575,49.904,40.573,49.9,40.4,49.9c-1.1,0-2,0.9-2,2
		c-0.1,0.5,0,4.5,2.4,7.3C41.8,60.4,43.1,61.2,44.7,61.7z M49.2,54.7c0.4-1.4,1-2.6,1.8-3.4c1-1.1,2.5-1.6,3.7-1.9
		c-0.3,1.2-0.8,2.7-1.9,3.7c-0.8,0.8-2,1.4-3.4,1.8c-0.1,0.1-0.1,0.1-0.2,0C49.2,54.8,49.2,54.8,49.2,54.7z M43.9,55.6
		c0.5,0.5,0.8,1.2,1.1,2c-0.5-0.3-1-0.6-1.3-1c-0.4-0.5-0.8-1.3-1-2C43.2,54.8,43.6,55.1,43.9,55.6z"/>
	<path fill="#231F20" d="M64.7,50.4c0.15,0.1,0.325,0.15,0.5,0.175V53.2c0,1.1,0.9,2,2,2c1.1,0,2-0.8,2-1.9v-5.709
		c0.034,0.001,0.066,0.009,0.1,0.009c0.4,0,0.8,0,1.2-0.1c2.1-0.6,3.9-1.6,5.2-2.9c3.4-3.4,3.4-8.7,3.4-8.9c0-1.1-0.9-2-2-2
		c-0.3,0-5.5,0-8.9,3.4c-0.964,0.895-1.678,2.04-2.233,3.344c-2.42-1.839-5.395-1.844-5.567-1.844c-1.1,0-2,0.9-2,2
		c-0.1,0.5,0,4.5,2.4,7.3C61.8,49.1,63.1,49.9,64.7,50.4z M69.2,43.4c0.4-1.4,1-2.6,1.8-3.4c1-1.1,2.5-1.6,3.7-1.9
		c-0.3,1.2-0.8,2.6-1.9,3.7c-0.8,0.8-2,1.4-3.4,1.8c-0.1,0.1-0.2,0.1-0.2,0C69.2,43.5,69.2,43.5,69.2,43.4z M63.9,44.3
		c0.5,0.5,0.8,1.2,1.1,2c-0.5-0.3-1-0.6-1.3-1c-0.4-0.5-0.8-1.3-1-2C63.2,43.5,63.6,43.8,63.9,44.3z"/>
	<path fill="#231F20" d="M21.6,49.2c0.15,0.1,0.325,0.15,0.5,0.175V52.1c0,1.1,0.9,2,2,2c1.1,0,2-0.9,2-2v-5.719
		c0.068,0.003,0.132,0.019,0.2,0.019c0.3,0,0.7,0,1.2-0.1c2.1-0.6,3.9-1.6,5.2-2.9c3.4-3.4,3.4-8.7,3.4-8.9c0-1.1-0.9-2-2-2
		c-0.3,0-5.5,0-8.9,3.4c-0.978,0.908-1.7,2.071-2.258,3.398C20.508,37.403,17.474,37.4,17.3,37.4c-1.1,0-2,0.9-2,2
		c-0.1,0.5,0,4.5,2.4,7.3C18.7,47.9,20,48.7,21.6,49.2z M26.1,42.2c0.4-1.4,1-2.6,1.8-3.4c1-1.1,2.5-1.6,3.7-1.9
		c-0.2,1.2-0.8,2.6-1.9,3.7c-0.8,0.8-2,1.4-3.4,1.8c-0.1,0.1-0.1,0.1-0.2,0C26.1,42.3,26.1,42.3,26.1,42.2z M20.8,43.1
		c0.5,0.5,0.8,1.2,1.1,2c-0.5-0.3-1-0.6-1.3-1c-0.4-0.5-0.8-1.3-1-2C20.1,42.3,20.5,42.6,20.8,43.1z"/>
</g>
</svg>
