<!-- Generator: Adobe Illustrator 25.4.1, SVG Export Plug-In . SVG Version: 6.00 Build 0)  -->
<svg version="1.1" id="Layer_1" xmlns="http://www.w3.org/2000/svg" xmlns:xlink="http://www.w3.org/1999/xlink" x="0px" y="0px"
	 viewBox="0 0 100 100" enable-background="new 0 0 100 100" xml:space="preserve">
<g>
	<path fill="#231F20" d="M90.7,20.7l-35-19.2c-3.6-2-7.9-2-11.5,0l-35,19.2C5.4,22.8,3,26.8,3,31.2v37.6c0,4.4,2.4,8.4,6.2,10.5
		l35,19.2c1.8,1,3.8,1.5,5.8,1.5s4-0.5,5.7-1.5l35-19.2c3.8-2.1,6.2-6.1,6.2-10.5V31.2C96.9,26.8,94.5,22.8,90.7,20.7z M11.1,24.2
		L46.1,5c1.3-0.7,2.6-1,3.9-1s2.6,0.3,3.8,1l34.9,19.2c2.6,1.4,4.2,4.1,4.2,7v35.3H76.6v-7.6c0-1.1-0.9-2-2-2c-1.1,0-2,0.9-2,2v7.6
		h-20v-7.6c0-1.1-0.9-2-2-2c-1.1,0-2,0.9-2,2v7.6H28.9v-7.6c0-1.1-0.9-2-2-2c-1.1,0-2,0.9-2,2v7.6H7V31.2C7,28.3,8.5,25.6,11.1,24.2
		z M88.8,75.8L53.8,95c-2.4,1.3-5.3,1.3-7.7,0l-35-19.2c-2.001-1.12-3.409-3.078-3.898-5.3h85.505
		C92.241,72.722,90.881,74.68,88.8,75.8z"/>
	<path fill="#231F20" d="M67.3,49.8c0.4,0,0.8-0.1,1.1-0.3l5.9-4l5.6,3.9c0.9,0.6,2.2,0.4,2.8-0.5c0.6-0.9,0.4-2.2-0.5-2.8l-6.7-4.7
		c-0.7-0.5-1.6-0.5-2.3,0l-7,4.7c-0.9,0.6-1.2,1.9-0.5,2.8C66.1,49.5,66.7,49.8,67.3,49.8z"/>
	<path fill="#231F20" d="M69.8,40.3c0.5,0,0.9-0.2,1.3-0.5l3.5-2.9l3.3,2.7c0.9,0.7,2.1,0.6,2.8-0.3c0.7-0.9,0.6-2.1-0.3-2.8
		l-4.6-3.8c-0.7-0.6-1.8-0.6-2.6,0l-4.7,3.9c-0.9,0.7-1,2-0.3,2.8C68.6,40,69.2,40.3,69.8,40.3z"/>
	<path fill="#231F20" d="M66.8,58.9l8-5l7.1,5.1c0.4,0.3,0.8,0.4,1.2,0.4c0.6,0,1.2-0.3,1.6-0.8c0.7-0.9,0.4-2.2-0.5-2.8l-8.2-6
		c-0.7-0.5-1.6-0.5-2.3-0.1l-9.2,5.7c-0.9,0.6-1.2,1.8-0.6,2.8C64.6,59.2,65.8,59.5,66.8,58.9z"/>
	<path fill="#231F20" d="M43.3,49.8c0.4,0,0.8-0.1,1.1-0.3l5.9-4l5.6,3.9c0.9,0.6,2.2,0.4,2.8-0.5c0.6-0.9,0.4-2.2-0.5-2.8l-6.7-4.7
		c-0.7-0.5-1.6-0.5-2.3,0l-7,4.7c-0.9,0.6-1.2,1.9-0.5,2.8C42,49.5,42.7,49.8,43.3,49.8z"/>
	<path fill="#231F20" d="M45.8,40.3c0.5,0,0.9-0.2,1.3-0.5l3.5-2.9l3.3,2.7c0.9,0.7,2.1,0.6,2.8-0.3c0.7-0.9,0.6-2.1-0.3-2.8
		l-4.6-3.8c-0.7-0.6-1.8-0.6-2.6,0l-4.7,3.9c-0.9,0.7-1,2-0.3,2.8C44.6,40,45.2,40.3,45.8,40.3z"/>
	<path fill="#231F20" d="M42.7,58.9l8-5l7.1,5.1c0.4,0.3,0.8,0.4,1.2,0.4c0.6,0,1.2-0.3,1.6-0.8c0.7-0.9,0.4-2.2-0.5-2.8l-8.1-6
		c-0.7-0.5-1.6-0.5-2.3-0.1l-9.1,5.7c-0.9,0.6-1.2,1.8-0.6,2.8C40.5,59.2,41.8,59.5,42.7,58.9z"/>
	<path fill="#231F20" d="M19.7,49.8c0.4,0,0.8-0.1,1.1-0.3l5.9-4l5.6,3.9c0.9,0.6,2.2,0.4,2.8-0.5c0.6-0.9,0.4-2.2-0.5-2.8l-6.7-4.7
		c-0.7-0.5-1.6-0.5-2.3,0l-7,4.7c-0.9,0.6-1.2,1.9-0.5,2.8C18.4,49.5,19,49.8,19.7,49.8z"/>
	<path fill="#231F20" d="M22.1,40.3c0.5,0,0.9-0.2,1.3-0.5l3.5-2.9l3.3,2.7c0.9,0.7,2.1,0.6,2.8-0.3c0.7-0.9,0.6-2.1-0.3-2.8
		l-4.6-3.8c-0.7-0.6-1.8-0.6-2.6,0l-4.7,3.9c-0.9,0.7-1,2-0.3,2.8C20.9,40,21.5,40.3,22.1,40.3z"/>
	<path fill="#231F20" d="M19.1,58.9l8-5l7.1,5.1c0.4,0.3,0.8,0.4,1.2,0.4c0.6,0,1.2-0.3,1.6-0.8c0.7-0.9,0.4-2.2-0.5-2.8l-8.2-5.9
		c-0.7-0.5-1.6-0.5-2.3-0.1l-9.1,5.7c-0.9,0.6-1.2,1.8-0.6,2.8C16.9,59.2,18.1,59.5,19.1,58.9z"/>
</g>
</svg>
