<?xml version="1.0" encoding="utf-8"?>
<!-- Generator: Adobe Illustrator 25.4.1, SVG Export Plug-In . SVG Version: 6.00 Build 0)  -->
<svg version="1.1" id="Layer_1" xmlns="http://www.w3.org/2000/svg" xmlns:xlink="http://www.w3.org/1999/xlink" x="0px" y="0px"
	 viewBox="0 0 100 100" enable-background="new 0 0 100 100" xml:space="preserve">
<g>
	<path fill="#231F20" d="M90.7,20.7l-18.095-9.927C72.427,10.62,72.225,10.49,72,10.4c-0.047-0.017-0.094-0.022-0.141-0.036
		L55.7,1.5c-3.6-2-7.9-2-11.5,0l-35,19.2C5.4,22.8,3,26.8,3,31.2v37.6c0,4.4,2.4,8.4,6.2,10.5l35,19.2c1.8,1,3.8,1.5,5.8,1.5
		s4-0.5,5.7-1.5l35-19.2c3.8-2.1,6.2-6.1,6.2-10.5V31.2C96.9,26.8,94.5,22.8,90.7,20.7z M68.322,17.738
		c-0.207-1.856-0.638-4.076-1.566-5.631l2.116,1.161C68.492,14.793,68.353,16.366,68.322,17.738z M93,68.8c0,2.9-1.6,5.6-4.2,7
		L53.8,95c-2.4,1.3-5.3,1.3-7.7,0l-35-19.2c-2.5-1.4-4.1-4.1-4.1-7V48.908c1.838,2.644,0.29,6.411,0.2,6.592c-0.5,1,0,2.2,1,2.6
		c0.3,0.1,0.5,0.2,0.8,0.2c0.8,0,1.5-0.5,1.9-1.2c0.1-0.3,3.1-7.5-2-12c-0.523-0.457-1.257-0.567-1.9-0.369V31.2
		c0-2.9,1.5-5.6,4.1-7L46.1,5c1.3-0.7,2.6-1,3.9-1s2.6,0.3,3.8,1l9.941,5.453c-0.415,0.124-0.79,0.37-1.041,0.747
		c-0.6,0.9-0.4,2.2,0.5,2.8c0.6,0.5,1.2,3.6,1.3,6.2c0,1,0.9,1.9,2,1.9c0.966-0.081,1.665-0.682,1.904-1.435
		c0.048,0.606,0.096,0.986,0.096,1.035c0.2,1,1,1.7,2,1.7c0.1,0,0.2,0,0.4,0.1c1.1-0.2,1.8-1.2,1.7-2.3
		c-0.078-0.078-0.461-2.991,0.005-5.884L88.8,24.2c2.6,1.4,4.2,4.1,4.2,7V68.8z"/>
	<path fill="#231F20" d="M60.8,58.7c0-2.1-0.3-7.3-2.8-9c-0.9-0.6-2.2-0.4-2.8,0.5c-0.6,0.9-0.4,2.2,0.5,2.8
		c0.6,0.6,1.1,3.4,1.1,5.8c0,1.1,0.9,2,2,2C59.9,60.8,60.8,59.9,60.8,58.7z"/>
	<path fill="#231F20" d="M35.7,58.9c-0.9-0.6-2.1-0.5-2.8,0.4c-1.885,2.44-2.416,5.861-2.499,8.564
		C30.105,65.345,29.395,62.221,27.6,61c-0.9-0.6-2.2-0.4-2.8,0.5c-0.6,0.9-0.4,2.2,0.5,2.8c0.6,0.5,1.2,3.6,1.3,6.2
		c0,1,0.9,1.9,2,1.9c0.947,0,1.637-0.563,1.89-1.34c0.045,0.526,0.092,0.896,0.11,1.04c0.2,1,1,1.7,2,1.7c0.1,0,0.2,0,0.3,0
		c1.1-0.2,1.9-1.2,1.7-2.3c-0.3-1.9-0.5-7.2,1.5-9.8C36.7,60.8,36.6,59.6,35.7,58.9z"/>
	<path fill="#231F20" d="M69.7,54c-0.2-1.8-0.2-6.9,2.5-9.3c0.9-0.7,0.9-2,0.2-2.8c-0.7-0.9-2-0.9-2.8-0.2
		c-4.8,4.2-3.8,12.5-3.8,12.8c0.1,1,1,1.7,2,1.7c0,0,0.1,0,0.2,0C69.1,56.1,69.8,55.1,69.7,54z"/>
	<path fill="#231F20" d="M20.9,65.3c-0.7,0.8-0.6,2.1,0.2,2.8c2.9,2.6,1,7.2,0.9,7.4c-0.5,1,0,2.2,1,2.6c0.3,0.1,0.5,0.2,0.8,0.2
		c0.7,0,1.5-0.5,1.9-1.2c0.1-0.3,3.1-7.5-2-12C22.9,64.4,21.6,64.5,20.9,65.3z"/>
	<path fill="#231F20" d="M62.5,58.7c0.1,0,0.2,0,0.3,0c1,0,1.8-0.8,1.9-1.7c0-0.3,1-8.5-3.8-12.8c-0.8-0.7-2.1-0.6-2.8,0.2
		c-0.7,0.8-0.6,2.1,0.2,2.8c2.7,2.3,2.7,7.5,2.5,9.3C60.6,57.6,61.4,58.6,62.5,58.7z"/>
	<path fill="#231F20" d="M46.7,62.7c0,1.1,0.9,2,2,2c1.1,0,2-0.9,2-2c0-2.4,0.5-5.2,1.1-5.7c0.9-0.7,1.1-1.9,0.5-2.8
		c-0.6-0.9-1.9-1.1-2.8-0.5C47,55.4,46.7,60.6,46.7,62.7z"/>
	<path fill="#231F20" d="M39.2,64.2c0.1,0,0.2,0,0.3,0c1,0,1.9-0.7,1.9-1.7c0-0.3,1-8.5-3.8-12.8c-0.8-0.7-2.1-0.6-2.8,0.2
		c-0.7,0.8-0.6,2.1,0.2,2.8c2.7,2.3,2.7,7.5,2.5,9.3C37.3,63.1,38.1,64.1,39.2,64.2z"/>
	<path fill="#231F20" d="M46.6,63.7c-0.4-2-1.1-8.5,1.5-10.8c0.9-0.7,0.9-2,0.2-2.8c-0.7-0.9-2-0.9-2.8-0.2
		c-4.8,4.3-2.9,13.6-2.7,14.7c0.2,1,1.1,1.6,2,1.6c0.1,0,0.3,0,0.3-0.1C46.1,65.8,46.8,64.8,46.6,63.7z"/>
	<path fill="#231F20" d="M78,34c0.6,0.5,1.2,3.5,1.3,6.2c0,1,0.9,1.9,2,1.9c0.802,0,1.493-0.533,1.811-1.209
		c0.038,0.397,0.074,0.688,0.089,0.809c0.2,1,1,1.7,2,1.7c0.1,0,0.2,0,0.3,0c1.1-0.2,1.8-1.2,1.7-2.3c-0.3-1.9-0.5-7.2,1.5-9.8
		c0.6-0.9,0.5-2.1-0.4-2.8c-0.9-0.6-2.1-0.5-2.8,0.4c-1.772,2.293-2.344,5.448-2.477,8.064c-0.337-2.395-1.069-5.139-2.723-6.264
		c-0.9-0.6-2.2-0.4-2.8,0.5C76.9,32.1,77.1,33.4,78,34z"/>
	<path fill="#231F20" d="M74.6,45.1c-0.5,1,0,2.2,1,2.6c0.3,0.1,0.5,0.2,0.8,0.2c0.8,0,1.5-0.4,1.9-1.2c0.1-0.3,3.1-7.5-2-12
		c-0.8-0.7-2.1-0.6-2.8,0.2c-0.7,0.8-0.6,2.1,0.2,2.8C76.6,40.3,74.7,44.9,74.6,45.1z"/>
	<path fill="#231F20" d="M41,33c0.6,0.6,1.1,3.4,1.1,5.8c0,1.1,0.9,2,2,2c1.1,0,1.9-0.9,2-2.1c0-0.356-0.01-0.805-0.037-1.307
		c0.224,0.7,0.85,1.235,1.637,1.307c0.1,0,0.2,0,0.3,0c1,0,1.9-0.8,2-1.8c0-0.3,1-8.6-3.9-12.7c-0.8-0.7-2.1-0.6-2.8,0.2
		c-0.7,0.8-0.6,2.1,0.2,2.8c2.7,2.3,2.7,7.5,2.5,9.3c0,0,0,0,0,0.001c-0.215-2.411-0.862-5.551-2.7-6.801c-0.9-0.6-2.2-0.4-2.8,0.5
		C39.9,31.1,40.1,32.4,41,33z"/>
	<path fill="#231F20" d="M21.3,41.7c0.6-0.9,0.5-2.1-0.4-2.8c-0.9-0.6-2.1-0.5-2.8,0.4c-1.885,2.44-2.416,5.861-2.499,8.564
		C15.305,45.345,14.595,42.221,12.8,41c-0.9-0.6-2.2-0.4-2.8,0.5s-0.4,2.2,0.5,2.8c0.6,0.5,1.2,3.6,1.3,6.2c0,1,0.9,1.9,2,1.9
		c0.902,0,1.634-0.509,1.9-1.229c0.042,0.462,0.084,0.796,0.1,0.929c0.2,1,1,1.7,2,1.7c0.1,0,0.2,0,0.3,0c1.1-0.2,1.8-1.2,1.7-2.3
		C19.5,49.6,19.3,44.3,21.3,41.7z"/>
	<path fill="#231F20" d="M53,36.1c0.1,0,0.2,0,0.2,0c1.1-0.1,1.8-1.1,1.7-2.2c0,0-0.7-6.5,2.5-9.3c0.9-0.7,0.9-2,0.2-2.8
		c-0.7-0.9-2-0.9-2.8-0.2C50,25.8,51,34.1,51,34.4C51.1,35.4,52,36.1,53,36.1z"/>
	<path fill="#231F20" d="M34,44.7c1.1,0,2-0.9,2-2c0-2.4,0.6-5.2,1.1-5.7c0.9-0.7,1.1-1.9,0.5-2.8c-0.6-0.9-1.9-1.1-2.8-0.5
		c-2.5,1.7-2.8,6.9-2.8,9C32,43.8,32.9,44.7,34,44.7z"/>
	<path fill="#231F20" d="M22.8,42c-0.2,1.1,0.6,2.1,1.7,2.2c0.1,0,0.2,0,0.3,0c1,0,1.8-0.7,1.9-1.7c0-0.3,1-8.5-3.8-12.8
		c-0.8-0.7-2.1-0.6-2.8,0.2c-0.7,0.8-0.6,2.1,0.2,2.8C23,35,23,40.2,22.8,42z"/>
	<path fill="#231F20" d="M30,46.2c0.2,0,0.3,0,0.3-0.1c1-0.3,1.7-1.3,1.5-2.4c-0.4-2-1.1-8.5,1.5-10.8c0.9-0.7,0.9-2,0.2-2.8
		c-0.7-0.9-2-0.9-2.8-0.2c-4.8,4.3-2.9,13.6-2.7,14.7C28.2,45.6,29.1,46.2,30,46.2z"/>
	<path fill="#231F20" d="M59.9,25.1c-0.5,1,0,2.2,1,2.6c0.3,0.1,0.5,0.2,0.8,0.2c0.7,0,1.5-0.4,1.9-1.2c0.1-0.3,3.1-7.5-2-12
		c-0.8-0.7-2.1-0.6-2.8,0.2c-0.7,0.8-0.6,2.1,0.2,2.8C61.9,20.3,60,24.9,59.9,25.1z"/>
	<path fill="#231F20" d="M61.1,73.6c-0.9-0.6-2.2-0.4-2.8,0.5c-0.6,0.9-0.4,2.2,0.5,2.8c0.6,0.6,1.1,3.4,1.1,5.8c0,1.1,0.9,2,2,2
		c1.1,0,2-0.9,2-2.1C63.9,80.5,63.6,75.3,61.1,73.6z"/>
	<path fill="#231F20" d="M72.7,65.6c-4.8,4.2-3.8,12.5-3.8,12.8c0.1,1,1,1.7,2,1.7c0.1,0,0.2,0,0.2,0c1.1-0.1,1.8-1.1,1.7-2.2
		c0,0-0.7-6.5,2.5-9.3c0.9-0.7,0.9-2,0.2-2.8C74.8,64.9,73.5,64.9,72.7,65.6z"/>
	<path fill="#231F20" d="M61.2,68.3c-0.7,0.8-0.6,2.1,0.2,2.8c2.7,2.3,2.7,7.5,2.5,9.3c-0.2,1.1,0.6,2.1,1.7,2.2c0.1,0,0.2,0,0.3,0
		c1,0,1.9-0.7,1.9-1.7c0-0.3,1-8.5-3.8-12.8C63.2,67.4,61.9,67.5,61.2,68.3z"/>
	<path fill="#231F20" d="M52.6,77.7c-2.5,1.7-2.8,6.9-2.8,9c0,1.1,0.9,2,2,2c1.1,0,2-0.9,2-2c0-2.4,0.5-5.2,1.1-5.7
		c0.9-0.7,1.1-1.9,0.5-2.8C54.8,77.3,53.5,77.1,52.6,77.7z"/>
	<path fill="#231F20" d="M37.9,73.9c-0.7,0.8-0.6,2.1,0.2,2.8c2.7,2.3,2.7,7.5,2.5,9.3c-0.2,1.1,0.6,2.1,1.7,2.2c0.1,0,0.2,0,0.3,0
		c1,0,1.9-0.8,1.9-1.7c0-0.3,1-8.5-3.8-12.8C39.9,73,38.6,73.1,37.9,73.9z"/>
	<path fill="#231F20" d="M51.2,76.9c0.9-0.7,0.9-2,0.2-2.8c-0.7-0.9-2-0.9-2.8-0.2c-4.8,4.3-2.9,13.6-2.7,14.7c0.2,1,1.1,1.6,2,1.6
		c0.2,0,0.3-0.1,0.3-0.1c1-0.3,1.7-1.3,1.5-2.4C49.3,85.7,48.6,79.2,51.2,76.9z"/>
	<path fill="#231F20" d="M88.7,52.9c-1.885,2.44-2.416,5.861-2.499,8.564c-0.296-2.518-1.006-5.643-2.801-6.864
		c-0.9-0.6-2.2-0.4-2.8,0.5c-0.6,0.9-0.4,2.2,0.5,2.8c0.6,0.5,1.2,3.5,1.3,6.2c0,1,0.9,1.9,2,1.9c0.947,0,1.637-0.563,1.889-1.34
		c0.045,0.526,0.093,0.896,0.111,1.04c0.2,1,1,1.7,2,1.7c0.1,0,0.2,0,0.3,0c1.1-0.2,1.9-1.2,1.7-2.3c-0.3-1.9-0.5-7.2,1.5-9.8
		c0.6-0.9,0.5-2.1-0.4-2.8C90.6,51.9,89.4,52,88.7,52.9z"/>
	<path fill="#231F20" d="M76.6,58.9c-0.7,0.8-0.6,2.1,0.2,2.8c2.9,2.6,1,7.2,0.9,7.4c-0.5,1,0,2.2,1,2.6c0.3,0.1,0.5,0.2,0.8,0.2
		c0.8,0,1.6-0.5,1.9-1.2c0.1-0.3,3.1-7.5-2-12C78.6,58,77.3,58.1,76.6,58.9z"/>
</g>
</svg>
