<!-- Generator: Adobe Illustrator 25.4.1, SVG Export Plug-In . SVG Version: 6.00 Build 0)  -->
<svg version="1.1" id="Layer_1" xmlns="http://www.w3.org/2000/svg" xmlns:xlink="http://www.w3.org/1999/xlink" x="0px" y="0px"
	 viewBox="0 0 95.9 100" style="enable-background:new 0 0 95.9 100;" xml:space="preserve">
<g id="Default_x5F_Hexagon_copy">
	<g id="Default_1_">
		<path d="M49,100c-2,0-4-0.5-5.8-1.5l-35-19.2C4.4,77.2,2,73.2,2,68.8V48.4c0-1.1,0.9-2,2-2s2,0.9,2,2v20.4c0,2.9,1.6,5.6,4.1,7
			l35,19.2c2.4,1.3,5.3,1.3,7.7,0l35-19.2c2.6-1.4,4.1-4.1,4.1-7V31.2c0-2.9-1.6-5.6-4.2-7L52.8,5c-2.4-1.3-5.3-1.3-7.7,0l-35,19.2
			c-1,0.5-2.2,0.2-2.7-0.8s-0.2-2.2,0.8-2.7l35-19.2c3.6-2,7.9-2,11.5,0l35,19.2c3.8,2.1,6.2,6.1,6.2,10.5v37.6
			c0,4.4-2.4,8.4-6.2,10.5l-35,19.2C53,99.5,51,100,49,100z"/>
	</g>
	<path d="M70.6,54.7c-8.2,0-14.8-6.6-14.8-14.8c0-2.4,0.6-4.8,1.7-6.9c-1.2-1.6-1.8-3.5-1.8-5.5c0-5,4.1-9.1,9.1-9.1
		c0.4,0,0.8,0,1.1,0.1c0.5-2.8,2.1-5.2,4.5-6.8c0.9-0.6,2.2-0.4,2.8,0.6c0.6,0.9,0.4,2.2-0.6,2.8c-1.8,1.2-2.8,3.2-2.8,5.3
		c0,0.2,0,0.4,0,0.6c0.1,0.7-0.2,1.4-0.8,1.8c-0.6,0.4-1.4,0.5-2,0.2c-0.7-0.3-1.4-0.5-2.2-0.5c-2.8,0-5.1,2.3-5.1,5.1
		c0,1.4,0.6,2.8,1.7,3.8c0.7,0.7,0.9,1.8,0.3,2.6c-1.2,1.8-1.8,3.9-1.8,6c0,5.9,4.8,10.8,10.8,10.8c3.6,0,7-1.8,9-4.9
		c0.4-0.6,1-0.9,1.7-0.9l0,0c0.7,0,1.3,0.3,1.7,0.9c1.3,1.9,3.4,3.1,5.7,3.1c1.4,0,2.7-0.4,3.8-1.2c0.9-0.6,2.2-0.4,2.8,0.5
		c0.6,0.9,0.4,2.2-0.5,2.8C93.1,52.3,91,53,88.8,53c-2.7,0-5.3-1-7.3-2.8C78.5,53,74.7,54.7,70.6,54.7z"/>
	<path d="M33.2,26.2c-1.6,0-3.1-0.6-4.2-1.7s-1.8-2.6-1.8-4.2c-1.5-0.4-2.8-1.4-3.7-2.7c-0.6-0.9-0.4-2.2,0.5-2.8s2.2-0.4,2.8,0.5
		c0.5,0.8,1.4,1.2,2.3,1.2c0.1,0,0.2,0,0.3,0c0.7-0.1,1.4,0.2,1.8,0.8c0.4,0.6,0.5,1.3,0.2,2c-0.1,0.3-0.2,0.6-0.2,0.9
		c0,0.5,0.2,1,0.6,1.4c0.4,0.4,0.9,0.6,1.4,0.6c0.6,0,1.1-0.2,1.5-0.7c0.7-0.7,1.8-0.9,2.6-0.3c0.9,0.6,1.9,0.9,2.9,0.9
		c2.9,0,5.2-2.4,5.1-5.3c0-1.8-0.9-3.4-2.4-4.4c-0.6-0.4-0.9-1-0.9-1.6c0-0.7,0.3-1.3,0.9-1.7c0.8-0.6,1.3-1.5,1.3-2.5
		c0-0.6-0.2-1.2-0.5-1.7c-0.6-0.9-0.4-2.2,0.5-2.8s2.2-0.4,2.8,0.5c0.8,1.2,1.2,2.5,1.2,3.9c0,1.5-0.4,2.9-1.3,4.1
		c1.5,1.7,2.4,3.8,2.4,6.1c0.1,5.1-4,9.3-9.1,9.4c-1.3,0-2.6-0.3-3.8-0.8C35.5,25.9,34.4,26.2,33.2,26.2
		C33.3,26.2,33.3,26.2,33.2,26.2z"/>
	<path d="M50.7,21.6c-1.5,0-3-0.4-4.3-1.3c-0.9-0.6-1.2-1.8-0.6-2.8c0.6-0.9,1.8-1.2,2.8-0.6c1.3,0.9,2.9,0.9,4,0.1
		c0.5-0.4,0.9-1,1.1-1.6c0.3-1,1.4-1.6,2.4-1.4c0.2,0,0.5,0.1,0.8-0.1c0.3-0.2,0.3-0.5,0.3-0.7c0-0.4-0.1-0.7-0.3-1.1
		c-0.1-0.2-0.3-0.3-0.5-0.4c-0.6-0.4-1-1-1-1.7s0.4-1.4,1-1.7l0.1-0.1c0.4-0.3,0.6-0.8,0.6-1.4c-0.1-1.1,0.7-2.1,1.8-2.2
		C60,4.5,61,5.3,61.1,6.4c0.1,1.3-0.2,2.5-0.8,3.6c0.7,1.1,1.1,2.4,0.9,3.7c-0.1,1.4-0.8,2.7-2,3.5c-0.7,0.5-1.5,0.8-2.4,0.9
		c-0.5,0.9-1.1,1.6-2,2.2C53.7,21.1,52.2,21.6,50.7,21.6z"/>
	<path d="M93.9,72.3c-0.8,0-1.6-0.5-1.9-1.4c-3.4-9.9-7.5-13.3-16.1-17.8c-1-0.5-1.4-1.7-0.9-2.7s1.7-1.4,2.7-0.9
		c9.2,4.8,14.2,9,18,20c0.4,1-0.2,2.2-1.2,2.5C94.4,72.3,94.1,72.3,93.9,72.3z"/>
	<circle cx="82.7" cy="36.4" r="2.4"/>
	<circle cx="68.8" cy="30" r="2.4"/>
	<circle cx="38.5" cy="12.6" r="1.5"/>
	<circle cx="39" cy="18" r="1.5"/>
	<circle cx="53.3" cy="7.6" r="1.1"/>
	<circle cx="50.6" cy="13" r="1.1"/>
	<circle cx="54.1" cy="12.1" r="1.1"/>
	<circle cx="33" cy="14.9" r="1.5"/>
	<circle cx="87.7" cy="30" r="2.4"/>
	<circle cx="72.2" cy="39.4" r="2.4"/>
	<path d="M63.4,83c-1,0-1.9-0.7-2-1.8c-0.7-5.4-3.1-9-7.3-10.7c-1-0.4-1.5-1.6-1.1-2.6s1.6-1.5,2.6-1.1c5.6,2.2,9,7.1,9.8,13.9
		c0.1,1.1-0.6,2.1-1.7,2.2C63.6,83,63.5,83,63.4,83z"/>
	<path d="M36.2,35.8c-1,0-1.9-0.8-2-1.8c-0.5-5.5-0.3-8.6,0.6-10.4c0.5-1,1.7-1.4,2.7-0.9s1.4,1.7,0.9,2.7c-0.3,0.5-0.7,2.3-0.1,8.2
		c0.1,1.1-0.7,2.1-1.8,2.2C36.3,35.8,36.2,35.8,36.2,35.8z"/>
	<path d="M49.2,30.6c-0.1,0-0.1,0-0.2,0c-1.1-0.1-1.9-1.1-1.8-2.2c0.5-5.9,0.2-7.6-0.1-8.2c-0.5-1-0.1-2.2,0.9-2.7s2.2-0.1,2.7,0.9
		c0.9,1.8,1.1,4.9,0.6,10.4C51.1,29.8,50.2,30.6,49.2,30.6z"/>
	<path d="M63.4,83c-1,0-1.9-0.7-2-1.8c-0.9-7.7,0.8-13.5,5.3-17.3c0.8-0.7,2.1-0.6,2.8,0.2c0.7,0.8,0.6,2.1-0.2,2.8
		c-3.4,2.9-4.7,7.5-3.9,13.8c0.1,1.1-0.6,2.1-1.7,2.2C63.6,83,63.5,83,63.4,83z"/>
	<path d="M68.4,83c-1,0-1.9-0.7-2-1.8c-0.8-6.8,1.4-11.1,7.6-14.4c1-0.5,2.2-0.2,2.7,0.8s0.2,2.2-0.8,2.7c-4.7,2.5-6.1,5.3-5.5,10.4
		c0.1,1.1-0.6,2.1-1.7,2.2C68.5,83,68.4,83,68.4,83z"/>
</g>
<g id="Your_Icon">
	<g>
		<path d="M24.7,62.5l-1.3-4.3c0-0.1-0.1-0.3-0.3-0.4l-4.2-2.5c-0.2-0.1-0.4-0.1-0.5-0.1s-0.3,0.2-0.4,0.3l-2.1,4.1
			c-0.1,0.1-0.1,0.3,0,0.5l1.3,4.3c0.1,0.3,0.4,0.5,0.7,0.5c0.1,0,0.1,0,0.2,0l6.3-1.6c0.2,0,0.3-0.2,0.4-0.3
			C24.7,62.8,24.8,62.7,24.7,62.5z"/>
		<path d="M41.4,73.4c-0.6,0-1.2-0.3-1.6-0.8c-1.6-2.3-2.1-4.3-1.5-6.1c0.9-2.6,3.8-3.5,5.8-4.1c1.1-0.3,2.2,0.4,2.4,1.4
			c0.3,1.1-0.4,2.2-1.4,2.4c-2.5,0.6-3,1.3-3.1,1.6c-0.1,0.4,0.1,1.2,1,2.4c0.6,0.9,0.4,2.1-0.5,2.8C42.2,73.2,41.8,73.4,41.4,73.4z
			"/>
		<path d="M32.8,50.1c-0.5,0-0.9-0.2-1.3-0.5c-0.8-0.7-1-2-0.2-2.8c0.9-1,1.7-3,1.5-4.9c-2.6,1.7-6.6,3.7-11.1,3.9
			c-1.1,0-2-0.8-2.1-1.9s0.8-2,1.9-2.1c3.9-0.2,7.5-2.1,9.2-3.3c1.1-0.7,2.5-0.9,3.8-0.3c1.2,0.6,2.1,1.7,2.3,3
			c0.4,2.8-0.5,6-2.3,8.2C34,49.9,33.4,50.1,32.8,50.1z"/>
		<path d="M12.9,81.2c-0.3,0-0.6-0.1-0.9-0.2c-1-0.5-1.4-1.7-0.9-2.7c0.5-1.1,5.4-10.5,11.5-11.4c2.1-0.3,5.1,0.4,8.6,1.2
			c2.7,0.6,9,2.1,10,1.1c1.2-1.2,2.6-3.4,2.6-4.4c0-1.7-4.6-7.8-14.3-15.6c-4.4-3.5-6.6-5-13.2-2.2c-1.7,0.7-3.7,0.1-4.7-1.4
			c-0.3-0.4-3-4-7.4-2c0.7,1.4,2.5,3.9,4.4,4.9c3.5,1.8,3.9,1.7,5.3,1.1c1-0.4,2.2,0.1,2.6,1.1s-0.1,2.2-1.1,2.6
			c-3.1,1.3-4.8,0.8-8.7-1.3c-2.8-1.4-5.2-4.5-6.2-6.8c-0.4-1-0.5-2-0.1-3s1.1-1.8,2-2.2c5.3-2.5,10.1-0.1,12.5,3.3
			c8.3-3.5,12.2-1.1,17.2,2.8c3.7,3,15.8,13.1,15.8,18.7c0,3.4-3.8,7.2-3.8,7.2c-2.5,2.5-8,1.3-13.7,0c-2.8-0.6-5.9-1.3-7.2-1.2
			c-3,0.4-6.8,5.8-8.4,9.2C14.4,80.8,13.7,81.2,12.9,81.2z M4.1,43.7L4.1,43.7L4.1,43.7L4.1,43.7z"/>
		<path id="Path_64_4_" d="M26.7,54.3c0.1,0.8,0.5,1.2,1.4,1.2c0.8,0,1.2-0.5,1.2-1.3s-0.5-1.3-1.3-1.3C27.2,53,26.7,53.5,26.7,54.3
			z"/>
	</g>
</g>
</svg>
